<svg width="30" height="30" viewBox="0 0 30 30" fill="none" xmlns="http://www.w3.org/2000/svg">
<path d="M26.0497 23.4535C25.2771 22.7647 24.6006 21.975 24.0385 21.1058C23.4249 19.9059 23.0572 18.5955 22.9568 17.2516V13.2933C22.9621 11.1824 22.1964 9.1422 20.8035 7.55606C19.4107 5.96992 17.4866 4.94699 15.3927 4.67948V3.64582C15.3927 3.36212 15.28 3.09003 15.0794 2.88942C14.8788 2.68881 14.6067 2.57611 14.323 2.57611C14.0393 2.57611 13.7672 2.68881 13.5666 2.88942C13.366 3.09003 13.2533 3.36212 13.2533 3.64582V4.6955C11.1782 4.9823 9.27729 6.01141 7.90274 7.59222C6.52819 9.17303 5.7731 11.1984 5.77732 13.2933V17.2516C5.67696 18.5955 5.30919 19.9059 4.69559 21.1058C4.14341 21.973 3.47779 22.7626 2.71642 23.4535C2.63095 23.5286 2.56245 23.621 2.51547 23.7247C2.4685 23.8283 2.44413 23.9407 2.44398 24.0545V25.1442C2.44398 25.3567 2.52841 25.5605 2.67867 25.7108C2.82894 25.8611 3.03275 25.9455 3.24527 25.9455H25.5209C25.7334 25.9455 25.9372 25.8611 26.0875 25.7108C26.2378 25.5605 26.3222 25.3567 26.3222 25.1442V24.0545C26.322 23.9407 26.2977 23.8283 26.2507 23.7247C26.2037 23.621 26.1352 23.5286 26.0497 23.4535ZM4.11065 24.3429C4.85617 23.6227 5.51257 22.8157 6.06578 21.9391C6.83871 20.49 7.28968 18.891 7.38789 17.2516V13.2933C7.35612 12.3542 7.51364 11.4183 7.85107 10.5414C8.18851 9.66446 8.69896 8.8644 9.35203 8.18885C10.0051 7.5133 10.7874 6.97608 11.6525 6.60918C12.5175 6.24228 13.4475 6.0532 14.3871 6.0532C15.3267 6.0532 16.2567 6.24228 17.1217 6.60918C17.9867 6.97608 18.7691 7.5133 19.4221 8.18885C20.0752 8.8644 20.5857 9.66446 20.9231 10.5414C21.2605 11.4183 21.4181 12.3542 21.3863 13.2933V17.2516C21.4845 18.891 21.9355 20.49 22.7084 21.9391C23.2616 22.8157 23.918 23.6227 24.6635 24.3429H4.11065Z" fill="#FF0000"/>
<path d="M14.4229 28.6219C14.9277 28.6103 15.4121 28.4205 15.7904 28.0862C16.1687 27.7518 16.4166 27.2945 16.4903 26.795H12.2755C12.3512 27.3081 12.6107 27.7762 13.0057 28.1122C13.4007 28.4483 13.9044 28.6294 14.4229 28.6219Z" fill="#FF0000"/>
<circle cx="21.9231" cy="8.07692" r="8.07692" fill="#FF0000"/>
<path d="M24.4084 11.1543H19.5353V10.1875L21.8351 7.73633C22.1509 7.39128 22.3836 7.09017 22.5334 6.83301C22.6863 6.57585 22.7628 6.33171 22.7628 6.10059C22.7628 5.78483 22.6831 5.53743 22.5236 5.3584C22.3641 5.17611 22.1362 5.08496 21.84 5.08496C21.521 5.08496 21.2687 5.19564 21.0832 5.41699C20.9009 5.63509 20.8097 5.92318 20.8097 6.28125H19.3937C19.3937 5.84831 19.4962 5.4528 19.7013 5.09473C19.9097 4.73665 20.2026 4.45671 20.5802 4.25488C20.9578 4.0498 21.3859 3.94727 21.8644 3.94727C22.5968 3.94727 23.1649 4.12305 23.5685 4.47461C23.9754 4.82617 24.1789 5.32259 24.1789 5.96387C24.1789 6.31543 24.0877 6.6735 23.9054 7.03809C23.7231 7.40267 23.4106 7.82747 22.9679 8.3125L21.3517 10.0166H24.4084V11.1543Z" fill="white"/>
</svg>
