<svg width="29" height="29" viewBox="0 0 29 29" fill="none" xmlns="http://www.w3.org/2000/svg">
<path d="M26.0497 22.4535C25.2771 21.7647 24.6006 20.975 24.0385 20.1058C23.4249 18.9059 23.0572 17.5955 22.9568 16.2516V12.2933C22.9621 10.1824 22.1964 8.1422 20.8035 6.55606C19.4107 4.96992 17.4866 3.94699 15.3927 3.67948V2.64582C15.3927 2.36212 15.28 2.09003 15.0794 1.88942C14.8788 1.68881 14.6067 1.57611 14.323 1.57611C14.0393 1.57611 13.7672 1.68881 13.5666 1.88942C13.366 2.09003 13.2533 2.36212 13.2533 2.64582V3.6955C11.1782 3.9823 9.27729 5.01141 7.90274 6.59222C6.52819 8.17303 5.7731 10.1984 5.77732 12.2933V16.2516C5.67696 17.5955 5.30919 18.9059 4.69559 20.1058C4.14341 20.973 3.47779 21.7626 2.71642 22.4535C2.63095 22.5286 2.56245 22.621 2.51547 22.7247C2.4685 22.8283 2.44413 22.9407 2.44398 23.0545V24.1442C2.44398 24.3567 2.52841 24.5605 2.67867 24.7108C2.82894 24.8611 3.03275 24.9455 3.24527 24.9455H25.5209C25.7334 24.9455 25.9372 24.8611 26.0875 24.7108C26.2378 24.5605 26.3222 24.3567 26.3222 24.1442V23.0545C26.322 22.9407 26.2977 22.8283 26.2507 22.7247C26.2037 22.621 26.1352 22.5286 26.0497 22.4535ZM4.11065 23.3429C4.85617 22.6227 5.51257 21.8157 6.06578 20.9391C6.83871 19.49 7.28968 17.891 7.38789 16.2516V12.2933C7.35612 11.3542 7.51364 10.4183 7.85107 9.54139C8.18851 8.66446 8.69896 7.8644 9.35203 7.18885C10.0051 6.5133 10.7874 5.97608 11.6525 5.60918C12.5175 5.24228 13.4475 5.0532 14.3871 5.0532C15.3267 5.0532 16.2567 5.24228 17.1217 5.60918C17.9867 5.97608 18.7691 6.5133 19.4221 7.18885C20.0752 7.8644 20.5857 8.66446 20.9231 9.54139C21.2605 10.4183 21.4181 11.3542 21.3863 12.2933V16.2516C21.4845 17.891 21.9355 19.49 22.7084 20.9391C23.2616 21.8157 23.918 22.6227 24.6635 23.3429H4.11065Z" fill="#FF0000"/>
<path d="M14.4229 27.6219C14.9277 27.6103 15.4121 27.4205 15.7904 27.0862C16.1687 26.7518 16.4166 26.2945 16.4903 25.795H12.2755C12.3512 26.3081 12.6107 26.7762 13.0057 27.1122C13.4007 27.4483 13.9044 27.6294 14.4229 27.6219Z" fill="#FF0000"/>
</svg>
