<svg width="32" height="30" viewBox="0 0 32 30" fill="none" xmlns="http://www.w3.org/2000/svg">
<path d="M16.4 14.998C16.7363 14.998 17.0094 14.6925 17.0094 14.3161C17.0094 13.9398 16.7363 13.6343 16.4 13.6343C16.0636 13.6343 15.7906 13.9398 15.7906 14.3161C15.7906 14.6925 16.0636 14.998 16.4 14.998Z" fill="#7D7D7D"/>
<path d="M29.5625 9.5444H25.9588L20.4154 1.01105C19.9174 0.0562069 18.8206 -0.283646 17.9494 0.25623C17.0662 0.805162 16.7487 2.04978 17.2395 3.03818C17.2536 3.06614 17.269 3.09305 17.2864 3.11861L21.6344 9.5444H11.1655L15.5135 3.11861C15.5307 3.09305 15.5464 3.06614 15.5604 3.03818C16.0501 2.05218 15.7361 0.806494 14.8499 0.255697C13.9806 -0.283114 12.8837 0.0564733 12.3848 1.01051L6.84112 9.5444H3.23747C1.89351 9.5444 0.799973 10.768 0.799973 12.2717C0.799973 13.4578 1.4879 14.4904 2.45695 14.8558C2.56026 14.9453 2.68927 14.9991 2.82972 14.9991C2.8578 14.9991 2.88423 15.001 2.91184 15.0052C3.17415 15.0446 3.38196 15.2673 3.42957 15.5587L5.50263 28.3202C5.66093 29.2932 6.41741 29.9995 7.30148 29.9995H25.4985C26.3825 29.9995 27.139 29.2932 27.2973 28.32L29.3704 15.5589C29.418 15.2673 29.626 15.0446 29.8893 15.0052C29.916 15.001 29.9424 14.9991 29.9702 14.9991C30.1116 14.9991 30.2416 14.9448 30.3449 14.8542C31.3147 14.4864 32 13.4556 32 12.2717C32 10.768 30.9064 9.5444 29.5625 9.5444ZM18.2883 2.34009C18.1491 2.01755 18.2571 1.6247 18.5404 1.44891C18.8353 1.26594 19.2071 1.38392 19.3697 1.71179C19.3816 1.7363 19.3952 1.75973 19.4097 1.78211L24.4521 9.5444H23.1628L18.2883 2.34009ZM13.3902 1.78237C13.4048 1.76 13.4178 1.73683 13.43 1.71286C13.593 1.38472 13.9651 1.26647 14.2588 1.44838C14.5426 1.6247 14.6511 2.01702 14.5116 2.34009L9.6371 9.5444H8.34789L13.3902 1.78237ZM29.5625 13.6354H18.8375C18.5009 13.6354 18.2281 13.9406 18.2281 14.3173C18.2281 14.6939 18.5009 14.9922 18.8375 14.9922H28.2461C28.2142 15.0939 28.189 15.1994 28.1714 15.3081L26.0981 28.076C26.0455 28.4004 25.7932 28.6358 25.4985 28.6358H7.30148C7.00655 28.6358 6.75447 28.4004 6.70163 28.0763L4.62856 15.3147C4.61095 15.206 4.58571 15.1006 4.55382 14.9991H13.9625C14.2991 14.9991 14.5718 14.6939 14.5718 14.3173C14.5718 13.9406 14.2991 13.6354 13.9625 13.6354H3.23747C2.55978 13.6354 2.01872 13.0175 2.01872 12.2717C2.01872 11.5199 2.56549 10.9081 3.23747 10.9081H29.5625C30.2345 10.9081 30.7812 11.5199 30.7812 12.2717C30.7812 13.029 30.2275 13.6354 29.5625 13.6354Z" fill="#7D7D7D"/>
<path d="M16.3988 17.0444C15.3907 17.0444 14.5707 17.962 14.5707 19.0899V24.5446C14.5707 25.6726 15.3907 26.5902 16.3988 26.5902C17.4069 26.5902 18.2269 25.6726 18.2269 24.5446V19.0899C18.2269 17.9599 17.4088 17.0444 16.3988 17.0444ZM17.0082 24.5446C17.0082 24.9207 16.7349 25.2265 16.3988 25.2265C16.0627 25.2265 15.7894 24.9207 15.7894 24.5446V19.0899C15.7894 18.7139 16.0627 18.4081 16.3988 18.4081C16.7351 18.4081 17.0082 18.7136 17.0082 19.0899V24.5446Z" fill="#7D7D7D"/>
<path d="M22.4936 26.5902C23.5017 26.5902 24.3217 25.6726 24.3217 24.5446V19.0899C24.3217 17.9599 23.5036 17.0444 22.4936 17.0444C21.4855 17.0444 20.6655 17.962 20.6655 19.0899V24.5446C20.6655 25.6726 21.4855 26.5902 22.4936 26.5902ZM21.8842 19.0899C21.8842 18.7139 22.1575 18.4081 22.4936 18.4081C22.8299 18.4081 23.103 18.7136 23.103 19.0899V24.5446C23.103 24.9207 22.8297 25.2265 22.4936 25.2265C22.1575 25.2265 21.8842 24.9207 21.8842 24.5446V19.0899Z" fill="#7D7D7D"/>
<path d="M10.3076 17.0444C9.29956 17.0444 8.47952 17.962 8.47952 19.0899V24.5446C8.47952 25.6726 9.29956 26.5902 10.3076 26.5902C11.3157 26.5902 12.1358 25.6726 12.1358 24.5446V19.0899C12.1358 17.9599 11.3176 17.0444 10.3076 17.0444ZM10.917 24.5446C10.917 24.9207 10.6438 25.2265 10.3076 25.2265C9.97154 25.2265 9.69827 24.9207 9.69827 24.5446V19.0899C9.69827 18.7139 9.97154 18.4081 10.3076 18.4081C10.644 18.4081 10.917 18.7133 10.917 19.0899V24.5446Z" fill="#7D7D7D"/>
</svg>
