<svg width="53" height="40" viewBox="0 0 53 40" fill="none" xmlns="http://www.w3.org/2000/svg">
<path d="M35.7155 0C34.868 0 34.0218 0.324707 33.3847 0.975867C32.4609 1.91995 32.3546 3.27648 32.8004 4.47962L30.964 6.76552C30.6914 6.69538 30.4111 6.63938 30.1185 6.61155C29.7416 6.57538 29.3575 6.57208 28.9692 6.60058C26.2507 6.80057 23.3141 8.53523 21.037 11.1466C20.9307 11.2603 20.858 11.4028 20.8273 11.5575C20.0229 11.7405 19.2241 11.9536 18.4408 12.2338C16.1082 13.0682 13.6041 14.2044 11.7179 16.1015C9.67845 18.1528 8.18482 20.8291 7.44792 23.6271C7.44134 23.6512 7.43918 23.6818 7.43294 23.7059C7.32212 23.7009 7.2114 23.7184 7.10754 23.7574C3.5532 25.1104 1.21483 26.7604 0.335462 28.8087C-0.104219 29.833 -0.114249 30.967 0.320479 32.0041C0.755284 33.0412 1.59023 33.9812 2.77118 34.8444C7.495 38.297 17.1044 40.186 27.4452 39.9855C32.6155 39.8847 37.4444 39.2502 41.4345 38.2027C45.4246 37.1553 48.5827 35.7295 50.4411 33.8577C51.3703 32.9217 51.9363 31.8819 52.0399 30.7928C52.1436 29.7038 51.7659 28.6247 51.0425 27.6786C49.6442 25.8496 46.9947 24.3603 43.2624 23.1796C44.2556 21.7834 44.9497 20.3167 45.2722 18.8968C45.5308 17.7581 45.5474 16.6328 45.2935 15.622L47.6372 13.9033C48.8261 14.3589 50.1768 14.2509 51.1003 13.3103C52.3745 12.0082 52.3745 9.89735 51.1003 8.59525C50.724 8.2117 50.2082 8.04607 49.7026 7.88465C49.5483 7.36938 49.3871 6.84506 49.0092 6.45691C49.0085 6.45691 49.0077 6.45691 49.007 6.45691C48.3699 5.80586 47.5216 5.48104 46.674 5.48104C45.8265 5.48104 44.9803 5.80575 44.3432 6.45691C43.4194 7.40099 43.3131 8.75752 43.7589 9.96066L41.9224 12.2466C40.8625 11.9776 39.6768 12.0077 38.4829 12.3003C37.6105 12.514 36.7226 12.8677 35.846 13.3363C35.828 13.322 35.8094 13.3085 35.7903 13.2957C35.7903 13.2957 35.3222 12.9915 34.4632 12.6065C34.5536 11.733 34.4914 10.915 34.3027 10.1664L36.6764 8.42643C37.8657 8.88297 39.2176 8.77243 40.1416 7.83141C41.4158 6.52931 41.4158 4.41832 40.1416 3.11622C39.7654 2.73267 39.2494 2.56918 38.7439 2.40776C38.5896 1.89249 38.4283 1.36817 38.0505 0.980014C38.0497 0.980013 38.0491 0.980013 38.0483 0.980014C37.4113 0.328963 36.5629 0.00414693 35.7153 0.00414693L35.7155 0Z" fill="#3B3C3D"/>
<path d="M35.7159 1.62227C36.1306 1.62227 36.5454 1.79052 36.8717 2.12311C37.124 2.38239 37.29 2.72086 37.3404 3.08841C37.3646 3.26534 37.4459 3.42955 37.5717 3.55621C37.6976 3.68287 37.8614 3.76512 38.0381 3.79045C38.3874 3.84086 38.7132 4.00517 38.9671 4.26347C39.6193 4.92986 39.62 6.0104 38.9693 6.67778H38.9671C38.4075 7.24577 37.5665 7.3295 36.9123 6.88754C36.7718 6.79296 36.6055 6.74408 36.4362 6.74761C36.2668 6.75114 36.1027 6.80698 35.9663 6.90734L33.7831 8.50832L32.6102 7.33541L34.299 5.23572C34.4071 5.10102 34.47 4.93576 34.4789 4.76324C34.4877 4.59072 34.442 4.41975 34.3482 4.2747C33.9092 3.59593 34.0008 2.69311 34.5601 2.12151C34.8866 1.78782 35.3005 1.62067 35.7159 1.62067V1.62227ZM46.6745 7.10371C47.0892 7.10371 47.504 7.26996 47.8303 7.60255C48.0826 7.86183 48.2486 8.2003 48.299 8.56785C48.3232 8.74477 48.4045 8.90899 48.5303 9.03565C48.6562 9.16231 48.82 9.24455 48.9967 9.26988C49.346 9.32029 49.6718 9.48447 49.9257 9.74277C50.5779 10.4092 50.5786 11.4898 49.9279 12.1572H49.9257C49.3661 12.7252 48.5251 12.8108 47.8709 12.369C47.7306 12.2741 47.5645 12.2248 47.3952 12.228C47.2258 12.2311 47.0616 12.2866 46.9249 12.3866L44.7417 13.9876L43.5688 12.8147L45.2576 10.715C45.3657 10.5803 45.4286 10.4151 45.4375 10.2425C45.4463 10.07 45.4006 9.89905 45.3068 9.754C44.8678 9.07523 44.9594 8.17241 45.5187 7.60081C45.8452 7.26712 46.2591 7.102 46.6745 7.10211V7.10371Z" fill="#D3D4D6"/>
<path d="M29.2307 8.26376C29.4859 8.24732 29.7327 8.24952 29.9691 8.27473C31.083 8.38103 31.8347 8.84414 32.3213 9.57606C32.7173 10.1716 32.9263 10.9965 32.8885 12.0075C31.2685 11.4686 29.0282 10.963 26.2042 10.963C25.2566 10.963 24.3049 11.032 23.3554 11.1385C25.2456 9.41966 27.4439 8.37893 29.2307 8.26617V8.26376ZM26.2042 12.6044C30.4184 12.6044 33.1489 13.7342 34.2776 14.3167C33.5979 14.8067 32.9356 15.3639 32.3085 15.999C30.4209 17.9102 29.1788 20.1099 28.7041 22.1996C28.2295 24.2894 28.5367 26.3539 29.9241 27.7026C31.3115 29.0511 33.3969 29.3118 35.4933 28.7984C37.5897 28.285 39.7807 27.0088 41.6682 25.0976C41.7329 25.0319 41.7913 24.9648 41.8545 24.8987C42.1142 25.7719 42.5615 27.3255 42.6806 28.2869C42.7672 28.9853 42.702 30.1619 42.6762 30.761C41.9231 30.946 35.836 32.4544 32.5096 32.7815C30.8035 32.9494 27.831 32.8439 26.8291 32.8056C26.7676 32.1582 26.5377 31.522 26.1121 30.9734C25.5125 30.2007 24.6514 29.74 23.7448 29.6209C23.073 29.5321 22.377 29.634 21.7436 29.9312C21.0921 29.065 20.0652 28.4949 18.9055 28.4949C17.0519 28.4949 15.5316 29.9378 15.374 31.7527L9.00854 30.7938C8.96339 30.3987 8.88263 29.7954 8.82013 28.5591C8.74046 26.9832 8.76649 25.0801 9.03851 24.0472C9.7012 21.5312 11.0688 19.0889 12.8847 17.2623C14.4842 15.6536 16.7627 14.5808 18.9954 13.7821C21.2972 12.9587 23.7551 12.6049 26.2041 12.6049L26.2042 12.6044Z" fill="#E77944"/>
<path d="M40.6813 13.6938C41.5952 13.7398 42.3516 14.0373 42.8966 14.5671C43.7688 15.4148 44.0528 16.811 43.6607 18.5374C43.2686 20.2638 42.1833 22.2367 40.4887 23.9525C38.7941 25.6683 36.8291 26.786 35.0972 27.2101C33.3653 27.6343 31.9519 27.3794 31.0797 26.5316C30.2076 25.6839 29.9193 24.2877 30.3113 22.5613C30.7034 20.8349 31.7909 18.8598 33.4855 17.144C35.1801 15.4283 37.1451 14.3127 38.877 13.8886C39.5265 13.7296 40.133 13.6663 40.6813 13.6938Z" fill="#E77944"/>
<path d="M43.6159 25.0291C46.7021 26.1122 48.7878 27.4365 49.7373 28.6784C50.2722 29.3779 50.4628 30.0078 50.403 30.6368C50.3431 31.2659 50.0147 31.9528 49.275 32.698C47.7955 34.1881 44.8501 35.6067 41.0175 36.6127C37.185 37.6188 32.4684 38.2463 27.4134 38.3442C17.3035 38.5403 7.8071 36.4896 3.74115 33.5177C2.72467 32.7749 2.11463 32.033 1.83624 31.369C1.55783 30.7049 1.56344 30.1173 1.84721 29.4575C2.3832 28.2091 4.158 26.7408 7.18097 25.5064C7.11094 26.5447 7.12824 27.6428 7.17876 28.642C7.26172 30.2838 7.42918 31.6108 7.42918 31.6108C7.45138 31.7884 7.53088 31.9537 7.65566 32.082C7.78043 32.2102 7.94365 32.2942 8.12051 32.3213L15.387 33.415C15.4639 33.4298 15.5424 33.4335 15.6203 33.426C16.1603 34.7095 17.4331 35.6197 18.9057 35.6197C19.4411 35.6197 19.9449 35.4896 20.4019 35.2752C20.4204 35.3073 20.4411 35.338 20.4639 35.3673C21.6811 36.8986 23.9321 37.1681 25.4787 35.9687C26.0036 35.5616 26.3702 35.0271 26.596 34.4469C27.4316 34.4864 30.6194 34.6253 32.6703 34.425C36.5199 34.0464 43.6952 32.2376 43.6952 32.2376C43.865 32.195 44.0167 32.0995 44.1283 31.9648C44.24 31.8301 44.3057 31.6631 44.316 31.4884C44.316 31.4884 44.4699 29.3631 44.3116 28.0874C44.1955 27.1513 43.8906 25.9849 43.616 25.031L43.6159 25.0291Z" fill="#D3D4D6"/>
<path d="M18.9058 30.1382C19.9746 30.1382 20.8235 30.987 20.8235 32.0559C20.8235 33.1248 19.9746 33.9737 18.9058 33.9737C17.8369 33.9737 16.988 33.1248 16.988 32.0559C16.988 30.987 17.8369 30.1382 18.9058 30.1382ZM23.1608 31.2298C23.7802 31.1925 24.4032 31.4527 24.8131 31.981C25.469 32.8263 25.319 34.0092 24.4707 34.6672C23.6223 35.3251 22.4183 35.1794 21.7524 34.3418C21.7293 34.3132 21.7042 34.2861 21.6775 34.2608C22.1644 33.6514 22.4672 32.8914 22.4672 32.0562C22.4672 31.8451 22.441 31.6388 22.4052 31.4376C22.6459 31.3166 22.9027 31.2457 23.1608 31.23V31.2298Z" fill="#EA6153"/>
</svg>
