<svg width="47" height="39" viewBox="0 0 47 39" fill="none" xmlns="http://www.w3.org/2000/svg">
<path d="M40.1486 37.1667H22.5221C17.6258 37.1667 15.5009 31.7434 17.2243 30.104C18.0273 29.3034 16.4801 29.5417 44.0656 29.5417C47.8063 29.5417 46.0241 37.1667 40.1486 37.1667Z" fill="#DAD7E5"/>
<path d="M44.7214 35.0317C43.6149 35.3558 44.4374 35.2605 25.4596 35.2605C23.9013 35.2605 22.4068 34.6579 21.305 33.5855C20.2031 32.513 19.5841 31.0584 19.5841 29.5417H44.0653C46.6114 29.5417 46.4743 32.9444 44.7214 35.0317Z" fill="#EDEBF2"/>
<path d="M40.9229 29.5417H31.3361C33.2728 29.5417 35.1661 28.9827 36.7765 27.9353C38.3869 26.888 39.642 25.3994 40.3832 23.6578C41.1243 21.9162 41.3182 19.9998 40.9404 18.1509C40.5626 16.302 39.6299 14.6037 38.2604 13.2707C36.8909 11.9378 35.146 11.03 33.2465 10.6622C31.3469 10.2945 29.378 10.4832 27.5886 11.2046C25.7993 11.926 24.2699 13.1477 23.1939 14.7151C22.1179 16.2825 21.5435 18.1253 21.5435 20.0104C21.5435 22.5382 22.5753 24.9625 24.4117 26.75C26.2482 28.5375 28.7389 29.5417 31.3361 29.5417H21.7492C13.0045 21.2304 19.0954 6.66656 31.3361 6.66656C43.5767 6.66656 49.6676 21.2208 40.9229 29.5417Z" fill="#DAD7E5"/>
<path d="M41.1287 20.0104C41.1287 22.0726 40.4414 24.0793 39.1702 25.7291C33.5297 33.0396 21.5437 29.1032 21.5437 20.0104C21.5437 18.5307 21.8976 17.0713 22.5775 15.7478C23.2573 14.4244 24.2445 13.2731 25.4607 12.3853C26.9155 11.3233 28.6455 10.6765 30.4567 10.5176C32.268 10.3586 34.0889 10.6937 35.7155 11.4853C37.3421 12.2769 38.7101 13.4937 39.6662 14.9995C40.6222 16.5052 41.1287 18.2403 41.1287 20.0104Z" fill="#9FDBF3"/>
<path d="M41.1283 20.0104C41.1283 22.0726 40.4411 24.0793 39.1698 25.7291C37.284 27.1057 34.9514 27.774 32.6001 27.6114C30.2488 27.4488 28.0367 26.4661 26.3699 24.8437C24.7031 23.2214 23.6935 21.0683 23.5264 18.7798C23.3593 16.4912 24.046 14.2208 25.4603 12.3853C26.9151 11.3233 28.6451 10.6765 30.4564 10.5176C32.2676 10.3586 34.0885 10.6937 35.7151 11.4853C37.3417 12.2769 38.7097 13.4937 39.6658 14.9995C40.6219 16.5052 41.1283 18.2403 41.1283 20.0104Z" fill="#B2E5FB"/>
<path d="M12.7293 21.9166H0.97831V37.1667H12.7293V21.9166Z" fill="#EDC432"/>
<path d="M12.7295 21.9166C12.7295 35.9657 12.6315 35.2604 12.7295 35.2604C10.392 35.2604 8.15036 34.3567 6.49756 32.7479C4.84475 31.1392 3.91621 28.9573 3.91621 26.6823V21.9166H12.7295Z" fill="#EDC432"/>
<path d="M11.7521 18.1041H1.95959V21.9166H11.7521V18.1041Z" fill="#374F68"/>
<path d="M11.7502 18.1041V20.9635H6.85397C6.07483 20.9635 5.3276 20.6623 4.77666 20.126C4.22573 19.5898 3.91621 18.8625 3.91621 18.1041H11.7502Z" fill="#425B72"/>
<path d="M10.7719 3.80714V18.1041H2.9379V0.947754L10.7719 3.80714Z" fill="#FB4040"/>
<path d="M10.773 3.8072C10.773 16.8841 10.6751 16.1979 10.773 16.1979C9.21473 16.1979 7.72027 15.5954 6.6184 14.5229C5.51653 13.4504 4.89751 11.9958 4.89751 10.4791V1.66266L10.773 3.8072Z" fill="#FB4040"/>
<path d="M37.2109 29.5417H25.4599V33.3542H37.2109V29.5417Z" fill="#C6C3D8"/>
<path d="M37.2114 29.5417V32.4011H29.3774C28.5983 32.4011 27.851 32.0998 27.3001 31.5636C26.7492 31.0273 26.4397 30.3 26.4397 29.5417H37.2114Z" fill="#DAD7E5"/>
<path d="M45.0456 20.0104C45.0484 21.7867 44.685 23.5456 43.9769 25.1827C43.2687 26.8199 42.2303 28.3022 40.923 29.5417H31.3361C33.2729 29.5417 35.1661 28.9827 36.7765 27.9353C38.3869 26.888 39.642 25.3994 40.3832 23.6578C41.1244 21.9162 41.3183 19.9998 40.9404 18.1509C40.5626 16.302 39.6299 14.6037 38.2604 13.2707C36.8909 11.9378 35.1461 11.03 33.2465 10.6622C31.347 10.2945 29.378 10.4832 27.5887 11.2046C25.7993 11.926 24.2699 13.1477 23.1939 14.7151C22.1179 16.2825 21.5436 18.1253 21.5436 20.0104C21.5436 22.5382 22.5753 24.9625 24.4117 26.75C26.2482 28.5375 28.739 29.5417 31.3361 29.5417H27.2135C25.3566 28.4593 23.7894 26.9645 22.6401 25.1794C21.4908 23.3944 20.792 21.3698 20.601 19.2715C20.41 17.1731 20.7321 15.0605 21.541 13.1065C22.3499 11.1526 23.6226 9.41279 25.255 8.02954C27.3468 7.02184 29.6683 6.55065 31.9996 6.6606C34.3309 6.77055 36.5948 7.458 38.5767 8.65783C40.5587 9.85766 42.1931 11.5301 43.3252 13.5168C44.4572 15.5035 45.0494 17.7386 45.0456 20.0104Z" fill="#EDEBF2"/>
<path d="M44.0663 28.5885H43.087C44.7238 26.4644 45.7204 23.9387 45.9654 21.2943C46.2104 18.6499 45.694 15.9914 44.474 13.6166C43.2541 11.2418 41.3788 9.24455 39.0584 7.84868C36.7379 6.45281 34.0639 5.71345 31.336 5.71345C28.6081 5.71345 25.9342 6.45281 23.6137 7.84868C21.2932 9.24455 19.4179 11.2418 18.198 13.6166C16.978 15.9914 16.4616 18.6499 16.7066 21.2943C16.9516 23.9387 17.9483 26.4644 19.585 28.5885H18.6058C13.3961 28.5885 15.433 38.1198 22.5228 38.1198H40.1493C47.2097 38.1198 49.3249 28.5885 44.0663 28.5885ZM31.336 7.6197C33.8296 7.62359 36.2672 8.3402 38.346 9.68059C40.4249 11.021 42.0535 12.9261 43.0298 15.1595C44.006 17.3928 44.2868 19.8561 43.8374 22.2435C43.388 24.6308 42.2282 26.8371 40.5018 28.5885H37.5053C46.1912 22.6505 41.7063 9.52596 31.336 9.52596C20.9658 9.52596 16.4808 22.6505 25.1667 28.5885H22.1702C20.4439 26.8371 19.284 24.6308 18.8346 22.2435C18.3852 19.8561 18.666 17.3928 19.6423 15.1595C20.6185 12.9261 22.2471 11.021 24.326 9.68059C26.4049 8.3402 28.8424 7.62359 31.336 7.6197ZM31.336 28.5885C29.5929 28.5885 27.889 28.0854 26.4396 27.1429C24.9903 26.2003 23.8607 24.8605 23.1936 23.2931C22.5266 21.7256 22.352 20.0009 22.6921 18.3369C23.0322 16.6729 23.8716 15.1444 25.1041 13.9447C26.3367 12.745 27.907 11.928 29.6166 11.597C31.3262 11.2661 33.0983 11.4359 34.7087 12.0852C36.3191 12.7345 37.6956 13.8339 38.664 15.2446C39.6324 16.6553 40.1493 18.3138 40.1493 20.0104C40.1493 22.2854 39.2207 24.4673 37.5679 26.076C35.9151 27.6848 33.6734 28.5885 31.336 28.5885ZM26.4398 30.4948H36.2323V32.401H26.4398V30.4948ZM40.1493 36.2136H22.5228C17.979 36.2136 16.3731 30.4948 18.6058 30.4948H24.4813V33.3542C24.4813 33.607 24.5844 33.8494 24.7681 34.0281C24.9517 34.2069 25.2008 34.3073 25.4605 34.3073H37.2115C37.4712 34.3073 37.7203 34.2069 37.904 34.0281C38.0876 33.8494 38.1908 33.607 38.1908 33.3542V30.4948H44.0663C46.299 30.4948 44.7028 36.2136 40.1493 36.2136ZM12.7303 20.9635V18.1041C12.7303 17.8513 12.6271 17.6089 12.4434 17.4302C12.2598 17.2514 12.0107 17.151 11.751 17.151V3.80719C11.7517 3.61244 11.691 3.42218 11.5772 3.26199C11.4634 3.10181 11.3019 2.97941 11.1145 2.91125C2.79086 -0.119702 2.93775 -0.234078 2.37958 0.166236C1.82141 0.56655 1.9585 -0.310328 1.9585 17.151C1.69879 17.151 1.44971 17.2514 1.26607 17.4302C1.08242 17.6089 0.979251 17.8513 0.979251 18.1041V20.9635C0.719537 20.9635 0.470461 21.0639 0.286816 21.2427C0.103171 21.4214 0 21.6638 0 21.9166L0 37.1667C0 37.4195 0.103171 37.6619 0.286816 37.8407C0.470461 38.0194 0.719537 38.1198 0.979251 38.1198H12.7303C12.99 38.1198 13.239 38.0194 13.4227 37.8407C13.6063 37.6619 13.7095 37.4195 13.7095 37.1667V21.9166C13.7095 21.6638 13.6063 21.4214 13.4227 21.2427C13.239 21.0639 12.99 20.9635 12.7303 20.9635ZM3.917 2.32031L9.79251 4.46485V17.151H3.917V2.32031ZM2.93775 19.0572H10.7718V20.9635H2.93775V19.0572ZM11.751 36.2136H1.9585V22.8698H11.751V36.2136Z" fill="black"/>
<path d="M30.0733 19.734L33.0111 16.8747C33.1955 16.6952 33.2991 16.4518 33.2991 16.1979C33.2991 15.9441 33.1955 15.7007 33.0111 15.5212C32.8267 15.3417 32.5766 15.2409 32.3158 15.2409C32.055 15.2409 31.8049 15.3417 31.6205 15.5212L28.6828 18.3806C28.5915 18.4695 28.5191 18.575 28.4696 18.6911C28.4202 18.8072 28.3948 18.9316 28.3948 19.0573C28.3948 19.183 28.4202 19.3074 28.4696 19.4236C28.5191 19.5397 28.5915 19.6452 28.6828 19.734C28.7741 19.8229 28.8825 19.8934 29.0018 19.9415C29.1211 19.9896 29.2489 20.0143 29.3781 20.0143C29.5072 20.0143 29.635 19.9896 29.7543 19.9415C29.8736 19.8934 29.982 19.8229 30.0733 19.734ZM32.5998 20.2869L29.662 23.1462C29.4776 23.3257 29.374 23.5691 29.374 23.823C29.374 24.0768 29.4776 24.3202 29.662 24.4997C29.8464 24.6792 30.0965 24.78 30.3573 24.78C30.6181 24.78 30.8682 24.6792 31.0526 24.4997L33.9903 21.6403C34.1747 21.4608 34.2783 21.2174 34.2783 20.9636C34.2783 20.7098 34.1747 20.4663 33.9903 20.2869C33.8059 20.1074 33.5558 20.0065 33.2951 20.0065C33.0343 20.0065 32.7842 20.1074 32.5998 20.2869Z" fill="black"/>
</svg>
