<svg width="45" height="45" viewBox="0 0 45 45" fill="none" xmlns="http://www.w3.org/2000/svg">
<path d="M43.4558 7.50021H34.9193L35.7555 4.15721L39.3479 2.93382C40.1119 2.67414 40.5666 1.8623 40.3463 1.08608C40.2902 0.890816 40.1951 0.708975 40.0667 0.551585C39.9382 0.394195 39.7791 0.264537 39.5991 0.170474C39.419 0.076412 39.2217 0.0199063 39.0192 0.00438469C38.8166 -0.0111369 38.613 0.0146491 38.4207 0.0801785L34.0146 1.58012C33.7774 1.66103 33.5641 1.80013 33.3945 1.98469C33.2248 2.16926 33.1041 2.3934 33.0434 2.63664L31.8275 7.50021H19.5411C18.734 7.50021 18.0412 8.12081 18.0009 8.92797C17.9911 9.13077 18.0226 9.33345 18.0935 9.52372C18.1644 9.71399 18.2731 9.88789 18.4132 10.0349C18.5533 10.1819 18.7217 10.2989 18.9084 10.3789C19.095 10.4588 19.2959 10.5001 19.499 10.5001H19.7568L19.8505 11.3119C19.8726 11.5015 19.9636 11.6764 20.1062 11.8033C20.2488 11.9301 20.433 12.0002 20.6239 12C24.28 12 27.5293 13.0219 30.0098 14.9549C31.3895 16.018 32.5079 17.3824 33.2797 18.9438C33.7117 19.8221 34.0305 20.7517 34.2284 21.7103C34.2678 21.8971 34.3784 22.0612 34.5368 22.1678C35.8121 23.0331 36.7529 24.3087 37.2027 25.7827C37.6526 27.2567 37.5846 28.8403 37.0098 30.2703C36.943 30.4358 36.938 30.6198 36.9958 30.7887C37.3279 31.7404 37.4977 32.7412 37.4983 33.7492C37.4983 35.8435 36.7858 37.8394 35.4921 39.3693C34.7586 40.2425 33.836 40.9372 32.7941 41.4008C32.6138 41.4802 32.472 41.6274 32.3994 41.8105C32.01 42.8247 31.4602 43.7699 30.771 44.6097C30.7423 44.6438 30.724 44.6854 30.718 44.7295C30.7121 44.7736 30.7189 44.8186 30.7376 44.859C30.7563 44.8994 30.7861 44.9337 30.8236 44.9578C30.861 44.9819 30.9046 44.9948 30.9491 44.995H35.5624C36.6919 44.9904 37.7787 44.5631 38.609 43.7973C39.4392 43.0314 39.9526 41.9825 40.0482 40.8571L43.2543 10.5001H43.498C43.7012 10.5003 43.9024 10.4593 44.0892 10.3794C44.2761 10.2996 44.4447 10.1826 44.585 10.0356C44.7253 9.88854 44.8342 9.71456 44.9052 9.52416C44.9762 9.33377 45.0078 9.13093 44.998 8.92797C44.9586 8.12081 44.263 7.50021 43.4558 7.50021Z" fill="#FB4040"/>
<path d="M8.68936 28.4994C8.98519 28.498 9.27836 28.5553 9.55191 28.6679C9.82547 28.7806 10.074 28.9463 10.283 29.1556L11.7371 30.6097C11.7719 30.6445 11.8132 30.6722 11.8588 30.691C11.9043 30.7099 11.9531 30.7196 12.0024 30.7196C12.0516 30.7196 12.1004 30.7099 12.146 30.691C12.1915 30.6722 12.2328 30.6445 12.2677 30.6097L13.7189 29.1556C13.9279 28.9463 14.1764 28.7806 14.45 28.6679C14.7235 28.5553 15.0167 28.498 15.3125 28.4994H33.7412C33.8397 28.5004 33.9374 28.482 34.0288 28.4452C34.1202 28.4084 34.2034 28.354 34.2737 28.2851C34.3441 28.2161 34.4001 28.134 34.4387 28.0434C34.4773 27.9528 34.4977 27.8554 34.4987 27.7569V27.7495C34.4976 26.8853 34.1987 26.048 33.6522 25.3786C33.1058 24.7092 32.3452 24.2486 31.4988 24.0746C31.4219 21.2913 30.2801 18.9617 28.1699 17.3249C26.2181 15.8024 23.61 14.9999 20.6242 14.9999H13.8745C7.47909 14.9999 3.14707 18.6345 2.99989 24.0746C2.15346 24.2486 1.39292 24.7092 0.846464 25.3786C0.300008 26.048 0.00105574 26.8853 0 27.7495C0 27.9484 0.0790146 28.1391 0.219661 28.2798C0.360308 28.4204 0.551067 28.4994 0.749971 28.4994H8.68936Z" fill="#EDC432"/>
<path d="M15.9313 31.4993C15.8327 31.4993 15.7352 31.5186 15.6441 31.5562C15.5531 31.5939 15.4704 31.6491 15.4007 31.7187L13.3251 33.7952C12.9735 34.1467 12.4967 34.3441 11.9995 34.3441C11.5024 34.3441 11.0256 34.1467 10.674 33.7952L8.59842 31.7187C8.52872 31.6491 8.44599 31.5939 8.35494 31.5562C8.2639 31.5186 8.16633 31.4993 8.06782 31.4993H1.56182C1.20948 31.4978 0.867928 31.6208 0.597559 31.8468C0.32719 32.0727 0.145415 32.387 0.0843725 32.734C0.0280533 33.0695 -0.000168511 33.4091 7.56892e-07 33.7493C7.56892e-07 36.617 1.98086 38.9531 4.43046 38.9991C4.65826 40.4165 5.20949 41.6971 6.03914 42.6992C7.26628 44.1814 9.05028 44.9988 11.0621 44.9988H23.4366C25.4484 44.9988 27.2324 44.1814 28.4595 42.6974C29.2892 41.6952 29.8404 40.4146 30.0682 38.9972C32.5178 38.9531 34.4987 36.617 34.4987 33.7474C34.4988 33.4072 34.4706 33.0676 34.4143 32.7321C34.3529 32.3854 34.1709 32.0716 33.9006 31.8461C33.6303 31.6205 33.2889 31.4977 32.9369 31.4993H15.9313Z" fill="#EDC432"/>
</svg>
