<svg width="50" height="39" viewBox="0 0 50 39" fill="none" xmlns="http://www.w3.org/2000/svg">
<path d="M27.6646 2.67326C27.4302 2.67695 27.2067 2.77259 27.0422 2.93962C26.8778 3.10665 26.7857 3.33168 26.7857 3.56606H13.3928C13.156 3.56608 12.9289 3.66019 12.7615 3.82762C12.594 3.99505 12.5 4.22208 12.4999 4.45885V10.7084C12.5 10.9452 12.594 11.1722 12.7615 11.3397C12.9289 11.5071 13.156 11.6012 13.3928 11.6012H14.2857V14.2796H12.5732H12.486H0.892857C0.656064 14.2796 0.428963 14.3737 0.261525 14.5412C0.0940867 14.7086 2.36616e-05 14.9356 0 15.1724V21.422C2.36616e-05 21.6587 0.0940867 21.8858 0.261525 22.0532C0.428963 22.2206 0.656064 22.3147 0.892857 22.3147H1.78571V37.4923C1.78574 37.729 1.8798 37.9561 2.04724 38.1235C2.21468 38.2909 2.44178 38.385 2.67857 38.3851H22.3214H40.1786H47.7679C48.0047 38.385 48.2318 38.2909 48.3992 38.1235C48.5666 37.9561 48.6607 37.729 48.6607 37.4923V27.6715H49.1071C49.3439 27.6715 49.571 27.5774 49.7385 27.41C49.9059 27.2425 50 27.0155 50 26.7787V22.7611C50 22.5244 49.9059 22.2973 49.7385 22.1299C49.571 21.9625 49.3439 21.8684 49.1071 21.8683H41.0714V11.6012H41.9643C42.2011 11.6012 42.4282 11.5071 42.5956 11.3397C42.7631 11.1722 42.8571 10.9452 42.8571 10.7084V4.45885C42.8571 4.22208 42.7631 3.99505 42.5956 3.82762C42.4282 3.66019 42.2011 3.56608 41.9643 3.56606H28.5714C28.5714 3.44764 28.5479 3.33025 28.5021 3.22102C28.4564 3.11178 28.3894 3.0129 28.305 2.92981C28.2206 2.84673 28.1205 2.78117 28.0106 2.73713C27.9006 2.69309 27.783 2.67143 27.6646 2.67326H27.6646Z" fill="#464C63"/>
<path d="M14.2857 5.3515H26.7857V9.81547H14.2857V5.3515ZM28.5714 5.3515H41.0714V9.81547H28.5714V5.3515Z" fill="#E1E1E6"/>
<path d="M16.0719 11.6011H26.7861V36.5993H23.2147V22.3146H24.1076C24.3444 22.3146 24.5715 22.2205 24.7389 22.053C24.9063 21.8856 25.0004 21.6586 25.0004 21.4218V15.1723C25.0004 14.9355 24.9063 14.7084 24.7389 14.541C24.5715 14.3736 24.3444 14.2795 24.1076 14.2795H16.0719V11.6011ZM28.5719 11.6011H39.2861V21.8682H32.1433C32.0631 21.8682 31.9834 21.8789 31.9061 21.9003C31.9049 21.9003 31.9037 21.9003 31.9025 21.9003C31.8825 21.9067 31.8628 21.914 31.8433 21.9218C31.8269 21.9273 31.8106 21.9331 31.7945 21.9395C31.7933 21.9395 31.7921 21.9395 31.7909 21.9395C31.766 21.9497 31.7416 21.9611 31.7177 21.9735C31.7165 21.9735 31.7153 21.9735 31.7141 21.9735C31.6963 21.9836 31.6789 21.9944 31.6618 22.0058C31.6391 22.0196 31.617 22.0344 31.5956 22.0502C31.5908 22.0561 31.586 22.0621 31.5813 22.0681C31.5765 22.074 31.5717 22.0799 31.567 22.086C31.5514 22.0997 31.5363 22.1141 31.5217 22.1289C31.4694 22.1802 31.4237 22.2377 31.3856 22.3002C31.3732 22.3194 31.3616 22.3392 31.3508 22.3593C31.3496 22.3593 31.3484 22.3593 31.3472 22.3593C31.3435 22.3676 31.3399 22.3758 31.3365 22.3841C31.3291 22.3988 31.3222 22.4138 31.3156 22.4288C31.3093 22.4435 31.3033 22.4585 31.2977 22.4735C31.2926 22.4871 31.2879 22.5007 31.2835 22.5145C31.2796 22.5275 31.276 22.5408 31.2727 22.5539C31.2701 22.5652 31.2677 22.5764 31.2656 22.5877C31.2643 22.596 31.2631 22.6044 31.262 22.6128C31.2529 22.6635 31.248 22.7147 31.2477 22.7662V26.7838C31.2482 26.8047 31.2494 26.8256 31.2513 26.8464C31.2542 26.8957 31.2612 26.9447 31.2722 26.9928C31.2755 27.0054 31.2791 27.0179 31.2829 27.0303C31.2873 27.0447 31.2921 27.0589 31.2972 27.0731C31.3027 27.0893 31.3086 27.1056 31.3151 27.1214C31.3217 27.1353 31.3286 27.1489 31.3359 27.1624C31.3405 27.172 31.3453 27.1815 31.3502 27.191C31.3611 27.2111 31.3727 27.2306 31.385 27.2498C31.3873 27.2558 31.3897 27.2618 31.3922 27.2677C31.3968 27.2749 31.4016 27.2822 31.4065 27.2893C31.4553 27.3602 31.514 27.4235 31.5809 27.4776C31.5856 27.4836 31.5904 27.4896 31.5952 27.4955C31.6337 27.5256 31.6745 27.5525 31.7173 27.5759C31.7424 27.5884 31.768 27.5996 31.7941 27.6097C31.7953 27.6097 31.7965 27.6097 31.7977 27.6097C31.8127 27.6161 31.8278 27.622 31.8431 27.6276C31.8637 27.6355 31.8847 27.6426 31.906 27.6489C31.9255 27.6556 31.9453 27.6615 31.9652 27.6668C32.0032 27.6753 32.0417 27.6812 32.0804 27.6847C32.1013 27.6854 32.1222 27.6854 32.1431 27.6847H32.5895V36.6126H28.5716L28.5719 11.6011Z" fill="#93CFEF"/>
<path d="M1.78524 16.0651H11.6067V20.529H1.78524V16.0651ZM13.3924 16.0651H23.2138V20.529H22.3837H13.3924V16.0651Z" fill="#E1E1E6"/>
<path d="M3.57236 22.3146H11.6081V36.5994H3.57236V22.3146ZM13.3938 22.3146H21.4295V36.5994H13.3938V22.3146Z" fill="#D87070"/>
<path d="M33.0359 23.6538H48.2144V25.8858H40.1787H33.4195H33.0359V23.6538Z" fill="#E1E1E6"/>
<path d="M34.376 27.6714H39.2867V36.5993H34.376V27.6714ZM41.0724 27.6714H46.876V36.5993H41.0724V27.6714Z" fill="#FABD6B"/>
<path d="M14.2857 5.35199V6.24478H25.8928V9.81596H26.7857V5.35199H14.2857ZM28.5714 5.35199V6.24478H40.1785V9.81596H41.0714V5.35199H28.5714Z" fill="#BDC3C7"/>
<path d="M16.0719 11.6015V12.4943H25.8933V36.5998H26.7861V11.6015H16.0719ZM23.2147 22.315V23.2078C23.4515 23.2078 23.6786 23.1137 23.846 22.9463C24.0135 22.7788 24.1075 22.5518 24.1076 22.315H23.2147ZM28.5719 11.6015V12.4943H38.3933V21.8686H39.2861V11.6015H28.5719ZM31.2469 22.7614C31.168 22.7618 31.0894 22.7725 31.0133 22.7935C31.0121 22.7935 31.0109 22.7935 31.0097 22.7935C30.9897 22.7999 30.9699 22.8072 30.9504 22.8151C30.934 22.8205 30.9177 22.8263 30.9017 22.8327C30.9005 22.8327 30.8992 22.8327 30.8981 22.8327C30.8732 22.8429 30.8488 22.8543 30.8249 22.8667C30.8237 22.8667 30.8225 22.8667 30.8213 22.8667C30.8035 22.8768 30.786 22.8877 30.769 22.899C30.7462 22.9129 30.7242 22.9276 30.7027 22.9434C30.6979 22.9493 30.6932 22.9553 30.6885 22.9613C30.6836 22.9672 30.6788 22.9732 30.6741 22.9792C30.6585 22.9929 30.6434 23.0073 30.6288 23.0221C30.5763 23.0746 30.5306 23.1334 30.4927 23.1972C30.4804 23.2163 30.4687 23.2359 30.4579 23.256C30.4567 23.256 30.4555 23.256 30.4544 23.256C30.4507 23.2643 30.4471 23.2727 30.4436 23.2811C30.4363 23.2946 30.4294 23.3082 30.4227 23.322C30.4164 23.3368 30.4104 23.3517 30.4049 23.3667C30.3997 23.3809 30.395 23.395 30.3906 23.4095C30.3856 23.4218 30.3808 23.4343 30.3763 23.4469C30.3737 23.4588 30.3713 23.4707 30.3692 23.4827C30.3679 23.491 30.3667 23.4994 30.3656 23.5078C30.3564 23.5584 30.3516 23.6099 30.3513 23.6614V27.679C30.3518 27.6999 30.3529 27.7206 30.3548 27.7413C30.3577 27.7906 30.3648 27.8397 30.3758 27.8878C30.379 27.901 30.3826 27.914 30.3865 27.927C30.3921 27.9409 30.398 27.9547 30.4043 27.9682C30.4098 27.9845 30.4158 28.0005 30.4222 28.0164C30.4288 28.0309 30.4357 28.045 30.4431 28.0591C30.4477 28.0687 30.4524 28.0782 30.4574 28.0877C30.4682 28.1078 30.4798 28.1276 30.4922 28.1468C30.4945 28.1527 30.4969 28.1587 30.4993 28.1646C30.504 28.1718 30.5088 28.1789 30.5136 28.186C30.5624 28.2569 30.6212 28.3203 30.6881 28.3743C30.6928 28.3803 30.6975 28.3863 30.7024 28.3922C30.7408 28.4223 30.7816 28.4492 30.8245 28.4726C30.8495 28.4857 30.8751 28.4977 30.9013 28.5084C30.9025 28.5084 30.9037 28.5084 30.9049 28.5084C30.9198 28.5147 30.9349 28.5207 30.9502 28.5262C30.9709 28.5342 30.9919 28.5412 31.0131 28.5476C31.0326 28.5542 31.0524 28.5602 31.0724 28.5655C31.1103 28.5751 31.1487 28.5822 31.1875 28.5868C31.2084 28.5876 31.2293 28.5876 31.2502 28.5868H31.6966V36.622H32.5895V27.694H32.1431C32.1222 27.6948 32.1013 27.6948 32.0804 27.694C32.0417 27.6906 32.0032 27.6846 31.9652 27.6762C31.9453 27.6709 31.9255 27.6649 31.906 27.6583C31.8847 27.6508 31.8637 27.6426 31.8431 27.6334C31.8278 27.6279 31.8127 27.6219 31.7977 27.6156C31.7965 27.6156 31.7953 27.6156 31.7941 27.6156C31.768 27.6061 31.7424 27.5952 31.7173 27.5833C31.6744 27.5588 31.6335 27.5307 31.5952 27.4994C31.5904 27.4935 31.5856 27.4875 31.5809 27.4815C31.514 27.4275 31.4553 27.3641 31.4065 27.2932C31.4016 27.2861 31.3968 27.279 31.3922 27.2718C31.3897 27.2659 31.3873 27.2599 31.385 27.254C31.3727 27.2348 31.3611 27.215 31.3502 27.1949C31.3453 27.1855 31.3405 27.1759 31.3359 27.1663C31.3286 27.1522 31.3216 27.1381 31.3151 27.1236C31.3076 27.1078 31.3006 27.0917 31.2941 27.0754C31.289 27.0619 31.2843 27.0481 31.2799 27.0343C31.276 27.0212 31.2724 27.0082 31.2692 26.995C31.2582 26.9469 31.2511 26.8978 31.2482 26.8485C31.2463 26.8278 31.2452 26.8071 31.2447 26.7862V22.7686L31.2469 22.7614Z" fill="#64A5DA"/>
<path d="M1.78524 16.0655V16.9583H10.7138V20.5295H11.6067V16.0655H1.78524ZM13.3924 16.0655V16.9583H22.321V20.5295H22.3838H23.2139V16.0655H13.3924Z" fill="#BDC3C7"/>
<path d="M3.57236 22.3151V23.2079H10.7152V36.5998H11.6081V22.3151H3.57236ZM13.3938 22.3151V23.2079H20.5366V36.5998H21.4295V22.3151H13.3938Z" fill="#BD5858"/>
<path d="M33.0359 23.6542V24.547H47.3216V25.8862H48.2144V23.6542H33.0359Z" fill="#BDC3C7"/>
<path d="M34.376 27.6719V28.5647H38.3938V36.5998H39.2867V27.6719H34.376ZM41.0724 27.6719V28.5647H45.9831V36.5998H46.876V27.6719H41.0724Z" fill="#E0A45C"/>
</svg>
