<svg width="72" height="77" viewBox="0 0 72 77" fill="none" xmlns="http://www.w3.org/2000/svg">
<g clip-path="url(#clip0_1_106)">
<g opacity="0.5">
<path opacity="0.5" d="M9.28301 4.1969H9.00359V5.96966H9.28301V4.1969Z" fill="#47E6B1"/>
<path opacity="0.5" d="M9.93507 5.23969V4.92685H8.3517V5.23969H9.93507Z" fill="#47E6B1"/>
</g>
<g opacity="0.5">
<path opacity="0.5" d="M68.3853 72.9352H68.1059V74.708H68.3853V72.9352Z" fill="#47E6B1"/>
<path opacity="0.5" d="M69.0374 73.978V73.6652H67.454V73.978H69.0374Z" fill="#47E6B1"/>
</g>
<g opacity="0.5">
<path opacity="0.5" d="M68.4958 20.8713H68.2164V22.6441H68.4958V20.8713Z" fill="#47E6B1"/>
<path opacity="0.5" d="M69.1479 21.9141V21.6013H67.5646V21.9141H69.1479Z" fill="#47E6B1"/>
</g>
<g opacity="0.5">
<path opacity="0.5" d="M71.3487 4.90054H71.0693V6.6733H71.3487V4.90054Z" fill="#47E6B1"/>
<path opacity="0.5" d="M72.0008 5.94334V5.63049H70.4175V5.94334H72.0008Z" fill="#47E6B1"/>
</g>
<g opacity="0.5">
<path opacity="0.5" d="M22.6898 4.04843H22.4104V5.82119H22.6898V4.04843Z" fill="#47E6B1"/>
<path opacity="0.5" d="M23.3411 5.09122V4.77838H21.7577V5.09122H23.3411Z" fill="#47E6B1"/>
</g>
<path opacity="0.5" d="M5.13601 30.5346C5.05905 30.497 4.99713 30.429 4.96201 30.3436C4.92689 30.2582 4.92103 30.1614 4.94554 30.0714C4.94949 30.0577 4.95203 30.0435 4.95309 30.0292C4.95873 29.9865 4.9511 29.943 4.9315 29.9059C4.91189 29.8688 4.88149 29.8404 4.84539 29.8255C4.8093 29.8105 4.7697 29.8099 4.73324 29.8237C4.69678 29.8375 4.66568 29.8649 4.64514 29.9014C4.63743 29.9131 4.63096 29.9257 4.62584 29.939C4.59225 30.0251 4.53154 30.0945 4.45527 30.1338C4.379 30.1731 4.29248 30.1797 4.21217 30.1522C4.19991 30.1478 4.18724 30.145 4.17441 30.1438C4.13633 30.1375 4.09747 30.146 4.06435 30.168C4.03122 30.1899 4.00584 30.2239 3.99247 30.2644C3.97909 30.3048 3.97853 30.3491 3.99088 30.3899C4.00323 30.4307 4.02774 30.4656 4.06029 30.4886C4.0707 30.4972 4.08196 30.5044 4.09386 30.5102C4.17081 30.5478 4.23274 30.6157 4.26785 30.7011C4.30297 30.7865 4.30884 30.8834 4.28433 30.9733C4.28037 30.987 4.27784 31.0012 4.27678 31.0156C4.27114 31.0582 4.27876 31.1017 4.29837 31.1388C4.31798 31.1759 4.34838 31.2043 4.38447 31.2193C4.42057 31.2343 4.46017 31.2349 4.49662 31.2211C4.53308 31.2072 4.56419 31.1798 4.58473 31.1434C4.59243 31.1317 4.59891 31.1191 4.60403 31.1058C4.63762 31.0196 4.69832 30.9503 4.7746 30.911C4.85087 30.8716 4.93739 30.8651 5.0177 30.8925C5.02995 30.897 5.04262 30.8998 5.05546 30.901C5.09353 30.9073 5.13239 30.8988 5.16552 30.8768C5.19865 30.8549 5.22402 30.8208 5.2374 30.7804C5.25078 30.74 5.25134 30.6957 5.23899 30.6548C5.22664 30.614 5.20213 30.5792 5.16957 30.5562C5.15917 30.5476 5.1479 30.5403 5.13601 30.5346Z" fill="#4D8AF0"/>
<path opacity="0.5" d="M10.2948 66.078C10.2179 66.0404 10.1559 65.9724 10.1208 65.887C10.0857 65.8016 10.0798 65.7048 10.1043 65.6149C10.1083 65.6011 10.1108 65.587 10.1119 65.5726C10.1175 65.53 10.1099 65.4865 10.0903 65.4494C10.0707 65.4123 10.0403 65.3839 10.0042 65.3689C9.9681 65.3539 9.9285 65.3533 9.89204 65.3671C9.85558 65.3809 9.82448 65.4084 9.80394 65.4448C9.79623 65.4565 9.78976 65.4691 9.78464 65.4824C9.75104 65.5686 9.69034 65.6379 9.61407 65.6772C9.5378 65.7165 9.45128 65.7231 9.37097 65.6957C9.35871 65.6912 9.34604 65.6884 9.33321 65.6872C9.29513 65.6809 9.25627 65.6894 9.22315 65.7114C9.19002 65.7333 9.16464 65.7674 9.15126 65.8078C9.13789 65.8482 9.13733 65.8925 9.14968 65.9333C9.16203 65.9742 9.18653 66.009 9.21909 66.032C9.2295 66.0406 9.24076 66.0479 9.25266 66.0536C9.32961 66.0912 9.39153 66.1592 9.42665 66.2446C9.46177 66.33 9.46764 66.4268 9.44313 66.5167C9.43917 66.5305 9.43664 66.5447 9.43558 66.559C9.42994 66.6017 9.43756 66.6452 9.45717 66.6822C9.47678 66.7193 9.50718 66.7477 9.54327 66.7627C9.57937 66.7777 9.61896 66.7783 9.65542 66.7645C9.69188 66.7507 9.72299 66.7232 9.74352 66.6868C9.75123 66.6751 9.75771 66.6625 9.76282 66.6492C9.79642 66.563 9.85712 66.4937 9.93339 66.4544C10.0097 66.4151 10.0962 66.4085 10.1765 66.436C10.1888 66.4404 10.2014 66.4432 10.2143 66.4444C10.2523 66.4507 10.2912 66.4422 10.3243 66.4202C10.3574 66.3983 10.3828 66.3642 10.3962 66.3238C10.4096 66.2834 10.4101 66.2391 10.3978 66.1983C10.3854 66.1574 10.3609 66.1226 10.3284 66.0996C10.318 66.091 10.3067 66.0837 10.2948 66.078Z" fill="#4D8AF0"/>
<path opacity="0.5" d="M57.2002 19.0112C57.1232 18.9736 57.0613 18.9056 57.0262 18.8202C56.9911 18.7348 56.9852 18.638 57.0097 18.5481C57.0137 18.5343 57.0162 18.5202 57.0173 18.5058C57.0229 18.4632 57.0153 18.4196 56.9957 18.3826C56.9761 18.3455 56.9457 18.3171 56.9096 18.3021C56.8735 18.2871 56.8339 18.2865 56.7974 18.3003C56.761 18.3141 56.7299 18.3416 56.7093 18.378C56.7016 18.3897 56.6951 18.4023 56.69 18.4156C56.6564 18.5018 56.5957 18.5711 56.5194 18.6104C56.4432 18.6497 56.3567 18.6563 56.2763 18.6289C56.2641 18.6244 56.2514 18.6216 56.2386 18.6204C56.2005 18.6141 56.1617 18.6226 56.1285 18.6446C56.0954 18.6665 56.07 18.7006 56.0566 18.741C56.0433 18.7814 56.0427 18.8257 56.0551 18.8665C56.0674 18.9074 56.0919 18.9422 56.1245 18.9652C56.1349 18.9738 56.1461 18.9811 56.158 18.9868C56.235 19.0244 56.2969 19.0924 56.332 19.1778C56.3672 19.2632 56.373 19.36 56.3485 19.4499C56.3446 19.4637 56.342 19.4778 56.341 19.4922C56.3353 19.5349 56.3429 19.5784 56.3625 19.6154C56.3822 19.6525 56.4126 19.6809 56.4486 19.6959C56.4847 19.7109 56.5243 19.7115 56.5608 19.6977C56.5973 19.6839 56.6284 19.6564 56.6489 19.62C56.6566 19.6083 56.6631 19.5957 56.6682 19.5824C56.7018 19.4962 56.7625 19.4269 56.8388 19.3876C56.915 19.3483 57.0016 19.3417 57.0819 19.3692C57.0941 19.3736 57.1068 19.3764 57.1196 19.3776C57.1577 19.3839 57.1966 19.3754 57.2297 19.3534C57.2628 19.3315 57.2882 19.2974 57.3016 19.257C57.315 19.2166 57.3155 19.1723 57.3032 19.1315C57.2908 19.0906 57.2663 19.0558 57.2338 19.0328C57.2233 19.0242 57.2121 19.0169 57.2002 19.0112Z" fill="#4D8AF0"/>
<path opacity="0.5" d="M56.5749 27.503C56.498 27.4654 56.4361 27.3974 56.4009 27.312C56.3658 27.2266 56.36 27.1297 56.3845 27.0398C56.3884 27.0261 56.3909 27.0119 56.392 26.9975C56.3976 26.9549 56.39 26.9114 56.3704 26.8743C56.3508 26.8372 56.3204 26.8088 56.2843 26.7938C56.2482 26.7789 56.2086 26.7782 56.1722 26.7921C56.1357 26.8059 56.1046 26.8333 56.0841 26.8698C56.0764 26.8814 56.0699 26.894 56.0648 26.9074C56.0312 26.9935 55.9705 27.0629 55.8942 27.1022C55.8179 27.1415 55.7314 27.1481 55.6511 27.1206C55.6388 27.1162 55.6262 27.1133 55.6133 27.1122C55.5753 27.1059 55.5364 27.1144 55.5033 27.1363C55.4701 27.1583 55.4448 27.1923 55.4314 27.2327C55.418 27.2731 55.4174 27.3175 55.4298 27.3583C55.4421 27.3991 55.4667 27.4339 55.4992 27.4569C55.5096 27.4656 55.5209 27.4728 55.5328 27.4786C55.6097 27.5162 55.6717 27.5841 55.7068 27.6695C55.7419 27.7549 55.7478 27.8518 55.7233 27.9417C55.7193 27.9554 55.7168 27.9696 55.7157 27.984C55.7101 28.0266 55.7177 28.0701 55.7373 28.1072C55.7569 28.1443 55.7873 28.1727 55.8234 28.1877C55.8595 28.2027 55.8991 28.2033 55.9355 28.1895C55.972 28.1756 56.0031 28.1482 56.0236 28.1117C56.0314 28.1001 56.0378 28.0875 56.0429 28.0742C56.0765 27.988 56.1372 27.9187 56.2135 27.8794C56.2898 27.84 56.3763 27.8335 56.4566 27.8609C56.4689 27.8653 56.4815 27.8682 56.4944 27.8694C56.5325 27.8757 56.5713 27.8671 56.6044 27.8452C56.6376 27.8232 56.6629 27.7892 56.6763 27.7488C56.6897 27.7084 56.6903 27.664 56.6779 27.6232C56.6656 27.5824 56.6411 27.5476 56.6085 27.5246C56.5981 27.516 56.5868 27.5087 56.5749 27.503Z" fill="#4D8AF0"/>
<path opacity="0.5" d="M56.6195 1.35243C56.5425 1.31482 56.4806 1.24685 56.4455 1.16146C56.4104 1.07607 56.4045 0.9792 56.429 0.889281C56.433 0.87556 56.4355 0.861375 56.4365 0.847005C56.4422 0.804372 56.4346 0.760865 56.415 0.723777C56.3953 0.686689 56.365 0.658276 56.3289 0.6433C56.2928 0.628324 56.2532 0.627697 56.2167 0.641523C56.1802 0.655349 56.1491 0.682787 56.1286 0.719239C56.1209 0.73089 56.1144 0.7435 56.1093 0.756818C56.0759 0.842942 56.0154 0.912329 55.9393 0.951813C55.8632 0.991297 55.7768 0.998129 55.6965 0.971014C55.6842 0.966583 55.6715 0.963746 55.6587 0.962559C55.6206 0.956246 55.5818 0.964781 55.5486 0.986734C55.5155 1.00869 55.4901 1.04272 55.4768 1.08313C55.4634 1.12355 55.4628 1.16788 55.4752 1.2087C55.4875 1.24952 55.512 1.28435 55.5446 1.30734C55.555 1.31597 55.5663 1.32322 55.5782 1.32895C55.6551 1.36656 55.717 1.43453 55.7522 1.51992C55.7873 1.60531 55.7931 1.70218 55.7686 1.7921C55.7647 1.80582 55.7621 1.82001 55.7611 1.83438C55.7554 1.87701 55.7631 1.92052 55.7827 1.9576C55.8023 1.99469 55.8327 2.02311 55.8688 2.03808C55.9049 2.05306 55.9445 2.05368 55.9809 2.03986C56.0174 2.02603 56.0485 1.99859 56.069 1.96214C56.0767 1.95049 56.0832 1.93788 56.0883 1.92456C56.121 1.8382 56.1807 1.76822 56.2564 1.72788C56.332 1.68754 56.4182 1.67964 56.4986 1.70567C56.5109 1.7101 56.5236 1.71294 56.5364 1.71413C56.5745 1.72044 56.6133 1.7119 56.6465 1.68995C56.6796 1.668 56.705 1.63396 56.7183 1.59355C56.7317 1.55314 56.7323 1.5088 56.7199 1.46798C56.7076 1.42716 56.6831 1.39234 56.6505 1.36934C56.6407 1.36253 56.6303 1.35686 56.6195 1.35243Z" fill="#4D8AF0"/>
<path opacity="0.5" d="M70.7295 44.2883C70.6526 44.2506 70.5907 44.1827 70.5555 44.0973C70.5204 44.0119 70.5145 43.915 70.5391 43.8251C70.543 43.8114 70.5455 43.7972 70.5466 43.7828C70.5522 43.7402 70.5446 43.6967 70.525 43.6596C70.5054 43.6225 70.475 43.5941 70.4389 43.5791C70.4028 43.5641 70.3632 43.5635 70.3268 43.5773C70.2903 43.5912 70.2592 43.6186 70.2387 43.6551C70.231 43.6667 70.2245 43.6793 70.2194 43.6926C70.1858 43.7788 70.1251 43.8481 70.0488 43.8875C69.9725 43.9268 69.886 43.9333 69.8057 43.9059C69.7934 43.9015 69.7808 43.8986 69.7679 43.8974C69.7299 43.8911 69.691 43.8997 69.6579 43.9216C69.6247 43.9436 69.5994 43.9776 69.586 44.018C69.5726 44.0584 69.5721 44.1028 69.5844 44.1436C69.5967 44.1844 69.6213 44.2192 69.6538 44.2422C69.6642 44.2509 69.6755 44.2581 69.6874 44.2638C69.7651 44.3017 69.8275 44.3705 69.8626 44.4569C69.8976 44.5433 69.9027 44.6413 69.877 44.7317C69.8731 44.7454 69.8705 44.7596 69.8695 44.774C69.8638 44.8166 69.8714 44.8601 69.8911 44.8972C69.9107 44.9343 69.9411 44.9627 69.9772 44.9777C70.0133 44.9926 70.0528 44.9933 70.0893 44.9794C70.1258 44.9656 70.1569 44.9382 70.1774 44.9017C70.1851 44.8901 70.1916 44.8775 70.1967 44.8641C70.2303 44.778 70.291 44.7087 70.3673 44.6693C70.4435 44.63 70.5301 44.6235 70.6104 44.6509C70.6226 44.6553 70.6353 44.6582 70.6481 44.6593C70.6862 44.6657 70.7251 44.6571 70.7582 44.6352C70.7913 44.6132 70.8167 44.5792 70.8301 44.5388C70.8435 44.4984 70.844 44.454 70.8317 44.4132C70.8193 44.3724 70.7948 44.3376 70.7623 44.3146C70.7523 44.3044 70.7413 44.2955 70.7295 44.2883Z" fill="#4D8AF0"/>
<path opacity="0.5" d="M5.1831 16.873C5.49174 16.873 5.74194 16.5929 5.74194 16.2473C5.74194 15.9018 5.49174 15.6216 5.1831 15.6216C4.87447 15.6216 4.62427 15.9018 4.62427 16.2473C4.62427 16.5929 4.87447 16.873 5.1831 16.873Z" fill="#F55F44"/>
<path opacity="0.5" d="M1.08582 61.8082C1.39446 61.8082 1.64466 61.5281 1.64466 61.1826C1.64466 60.837 1.39446 60.5569 1.08582 60.5569C0.777184 60.5569 0.526985 60.837 0.526985 61.1826C0.526985 61.5281 0.777184 61.8082 1.08582 61.8082Z" fill="#F55F44"/>
<path opacity="0.5" d="M36.8916 5.55818C37.2003 5.55818 37.4505 5.27806 37.4505 4.9325C37.4505 4.58695 37.2003 4.30682 36.8916 4.30682C36.583 4.30682 36.3328 4.58695 36.3328 4.9325C36.3328 5.27806 36.583 5.55818 36.8916 5.55818Z" fill="#F55F44"/>
<path opacity="0.5" d="M42.5134 17.4893C42.822 17.4893 43.0722 17.2092 43.0722 16.8637C43.0722 16.5181 42.822 16.238 42.5134 16.238C42.2048 16.238 41.9546 16.5181 41.9546 16.8637C41.9546 17.2092 42.2048 17.4893 42.5134 17.4893Z" fill="#F55F44"/>
<path opacity="0.5" d="M0.558836 46.2367C0.867472 46.2367 1.11767 45.9566 1.11767 45.611C1.11767 45.2655 0.867472 44.9854 0.558836 44.9854C0.250199 44.9854 0 45.2655 0 45.611C0 45.9566 0.250199 46.2367 0.558836 46.2367Z" fill="#F55F44"/>
<path opacity="0.5" d="M22.4456 15.8602C22.7542 15.8602 23.0044 15.5801 23.0044 15.2346C23.0044 14.889 22.7542 14.6089 22.4456 14.6089C22.137 14.6089 21.8868 14.889 21.8868 15.2346C21.8868 15.5801 22.137 15.8602 22.4456 15.8602Z" fill="#47E6B1"/>
<path opacity="0.5" d="M60.8844 57.4228C61.193 57.4228 61.4433 57.1427 61.4433 56.7972C61.4433 56.4516 61.193 56.1715 60.8844 56.1715C60.5758 56.1715 60.3256 56.4516 60.3256 56.7972C60.3256 57.1427 60.5758 57.4228 60.8844 57.4228Z" fill="#F55F44"/>
<g opacity="0.5">
<path opacity="0.5" d="M45.692 20.7521C44.6096 19.5364 43.0312 19.0526 41.2448 19.3898C39.5758 19.7055 37.906 20.7173 36.5459 22.2392C36.1513 22.6837 35.8196 23.1932 35.5625 23.7499C35.312 23.1747 34.983 22.6466 34.5874 22.1847C33.2449 20.6374 31.5944 19.5937 29.9305 19.2452C28.1524 18.8694 26.5674 19.326 25.4665 20.5209C24.3656 21.7159 23.91 23.4755 24.1869 25.4728C24.4453 27.3517 25.3213 29.2307 26.6639 30.7798C29.4816 34.0341 35.1043 32.763 35.3426 32.7067L35.4131 32.6907L35.6296 32.7461C35.867 32.8062 41.4688 34.1854 44.3352 30.9865C45.6987 29.4655 46.6074 27.5988 46.8952 25.7312C47.2015 23.7367 46.7744 21.9677 45.692 20.7521ZM34.3902 30.8277C33.0318 31.0325 29.6452 31.3106 27.9636 29.3688C26.8829 28.1202 26.1755 26.6265 25.9741 25.1647C25.7895 23.8307 26.0581 22.6967 26.7243 21.9705C26.9856 21.6895 27.2982 21.4751 27.6406 21.342C28.2011 21.1194 28.8682 21.078 29.5974 21.2312C30.8963 21.5027 32.2069 22.3407 33.2894 23.5892C34.9709 25.5358 34.6151 29.3171 34.3902 30.8277ZM45.1122 25.3855C44.8881 26.8435 44.1581 28.3222 43.0581 29.5501C41.3463 31.46 37.9648 31.1162 36.6105 30.885C36.4083 29.3669 36.1121 25.5799 37.823 23.67C38.923 22.4421 40.2463 21.6304 41.5494 21.3834C42.2811 21.2453 42.9473 21.2988 43.5045 21.5318C43.8447 21.6715 44.1538 21.892 44.4107 22.1782C45.0677 22.9194 45.3169 24.058 45.1122 25.3873V25.3855Z" fill="url(#paint0_linear_1_106)"/>
</g>
<path d="M35.8863 32.298L35.3509 32.4248C35.1235 32.4783 29.7433 33.694 27.0439 30.5806C25.7618 29.1 24.9202 27.2972 24.6726 25.5076C24.4083 23.5929 24.8405 21.9085 25.896 20.7652C26.9516 19.6218 28.467 19.1888 30.1679 19.5439C31.7621 19.8774 33.343 20.876 34.6243 22.3566C37.3194 25.4709 36.0658 31.4534 36.0105 31.7061L35.8863 32.298ZM27.9812 21.5515C27.6536 21.6787 27.3544 21.8839 27.1043 22.1528C26.4649 22.8461 26.2099 23.9311 26.3861 25.2079C26.5791 26.6067 27.2554 28.0356 28.29 29.2306C29.8985 31.0889 33.1391 30.8277 34.4388 30.6267C34.6545 29.179 34.9935 25.5602 33.3849 23.7019C32.3503 22.5069 31.0959 21.7056 29.8532 21.4472C29.1567 21.2988 28.5182 21.3392 27.9812 21.5515Z" fill="#FF8918"/>
<path d="M35.0926 32.3243L34.971 31.7268C34.9198 31.4722 33.7585 25.4662 36.5015 22.4055C37.8054 20.9493 39.4039 19.9817 41.0007 19.6811C42.7066 19.3579 44.2169 19.821 45.2532 20.9841C46.2895 22.1471 46.6973 23.84 46.4036 25.749C46.1284 27.534 45.2582 29.319 43.9543 30.7779C41.213 33.834 35.8529 32.5188 35.6255 32.4605L35.0926 32.3243ZM43.1622 21.7319C42.6285 21.5083 41.9875 21.4566 41.2919 21.5891C40.045 21.8249 38.7746 22.6018 37.7257 23.7771C36.0886 25.6043 36.3714 29.226 36.5653 30.6812C37.8616 30.902 41.0964 31.2317 42.7351 29.4035C43.7882 28.2283 44.4863 26.8134 44.7011 25.4183C44.8974 24.1454 44.6591 23.0556 44.0298 22.3501C43.7836 22.0762 43.4873 21.8653 43.1614 21.7319H43.1622Z" fill="#FF8918"/>
<g opacity="0.5">
<path opacity="0.5" d="M61.3267 30.7234H9.16366V42.4093H11.8739V76.2308H58.6164V42.4093H61.3267V30.7234Z" fill="url(#paint1_linear_1_106)"/>
</g>
<path d="M58.025 34.2568H12.4656V75.6559H58.025V34.2568Z" fill="#F5F5F5"/>
<path d="M39.5372 41.6494H30.9533V75.6559H39.5372V41.6494Z" fill="#FF8918"/>
<path opacity="0.1" d="M58.025 32.0387H12.4656V42.3887H58.025V32.0387Z" fill="black"/>
<path d="M60.6654 31.2993H9.82398V41.6494H60.6654V31.2993Z" fill="#F5F5F5"/>
<path d="M39.5372 31.2993H30.9533V41.6494H39.5372V31.2993Z" fill="#FF8918"/>
<path d="M65.675 32.2294C65.5139 31.708 63.7518 33.1763 63.7518 33.1763L63.3457 33.1491L62.5645 32.3393L63.1099 31.7286L58.5293 27.3329C58.407 27.2156 58.2643 27.1281 58.1101 27.0762C57.9559 27.0243 57.7937 27.009 57.634 27.0313L53.827 27.564C53.8111 27.3198 53.676 27.0295 53.4863 26.7335C53.0961 26.0167 52.2738 25.206 51.9692 24.9176L51.5052 21.4124L51.8996 20.7501C51.8267 20.7278 51.755 20.7008 51.6848 20.6693L51.7687 20.5294L51.7377 20.52L51.7771 20.4692H51.7721L52.7597 19.1934C52.8326 19.0989 52.8699 18.9763 52.8638 18.8516C52.8577 18.7269 52.8086 18.6097 52.7269 18.5246L50.5277 16.6569C50.5945 16.4787 50.6265 16.2865 50.6217 16.0932C50.6384 15.7175 50.4908 15.3417 49.9923 15.0655C49.6841 14.9011 49.3612 14.7736 49.0291 14.685C48.4817 14.5272 47.9065 14.5366 47.3635 14.7122L47.3349 14.6747C46.6578 13.8085 45.7709 15.0504 45.7365 15.1021L42.2677 19.4236C42.173 19.591 42.1381 19.7922 42.1698 19.9871C42.2015 20.1821 42.2975 20.3565 42.4388 20.4758L44.2748 22.0175L44.2689 22.0306L44.3729 22.118C44.2941 22.2908 44.1892 22.4064 44.0491 22.4233L44.3301 22.5811C44.2858 22.6157 44.2345 22.6374 44.1808 22.6441L45.468 23.3646C45.468 24.1162 45.5368 27.5424 46.6251 29.2259C46.7367 29.4319 46.8693 29.6226 47.0203 29.7943C47.0203 29.7943 47.1126 29.7379 47.2821 29.6468L47.4767 30.0818C47.6902 30.5601 48.0328 30.9511 48.4558 31.1993C48.8789 31.4475 49.361 31.5404 49.8338 31.4646L55.8752 30.4979L55.8115 30.7131L55.8459 30.7074L53.8874 37.2837L54.2113 37.4048L54.2054 37.418L54.2507 37.4396L53.8438 38.3011L52.5616 39.4049C52.5616 39.4049 56.309 41.5084 56.7034 41.1768C57.0978 40.8451 55.3223 39.4096 55.3223 39.4096L55.2232 38.9681L55.6545 37.9488L56.0162 38.0841L58.9203 31.5793L59.0193 31.3585L60.9828 34.1102L61.5366 33.4901L61.5962 33.5578L61.6012 33.5521L62.369 34.4221L62.9253 36.1225C62.9253 36.1225 65.8386 32.7498 65.675 32.2294ZM50.4304 19.5833L50.3918 19.5335C50.0829 19.9424 49.7058 20.28 49.2816 20.5275V20.1658L49.3035 20.1442V19.9873C49.5955 19.6864 49.8068 19.3002 49.9134 18.8721C50.02 18.444 50.0177 17.9911 49.9068 17.5644L51.1813 18.6627L50.4304 19.5833ZM46.0998 15.5061L46.0688 15.4713L46.0998 15.5051V15.5061ZM45.0803 17.8059C45.0719 17.9199 45.0686 18.0351 45.0702 18.1516C45.068 18.3202 45.0765 18.4888 45.0954 18.6561C45.1608 19.2404 45.3471 19.7177 45.7331 19.945C46.0688 20.1423 46.2894 20.1329 46.4304 19.9967L46.4455 20.0117C46.4572 20.2405 46.5103 20.4642 46.6016 20.6693C45.8826 20.5013 45.1959 20.1918 44.5735 19.7552C44.5735 19.7552 44.5735 19.7844 44.5785 19.837L44.0507 19.2461L45.0803 17.8059Z" fill="url(#paint2_linear_1_106)"/>
<path d="M54.7079 36.1807L53.8453 38.0042L55.1862 38.6478L56.0487 36.6101L54.7079 36.1807Z" fill="#FDA57D"/>
<path d="M55.1861 38.6477L55.2818 39.0771C55.2818 39.0771 57.0061 40.4712 56.6244 40.7935C56.2426 41.1157 52.5967 39.0771 52.5967 39.0771L53.8419 38.0042L55.1861 38.6477Z" fill="#333333"/>
<path opacity="0.1" d="M55.9565 36.7989L54.6005 36.2925L54.1969 37.1456L55.5378 37.79L55.9565 36.7989Z" fill="black"/>
<path d="M60.8342 32.7649L62.1289 34.2323L63.0796 32.9932L61.602 31.4609L60.8342 32.7649Z" fill="#FDA57D"/>
<path opacity="0.1" d="M61.6549 31.5323L60.8871 32.8363L61.378 33.3934L62.374 32.2783L61.6549 31.5323Z" fill="black"/>
<path d="M63.0805 32.9932L63.4749 33.0195C63.4749 33.0195 65.1799 31.5962 65.3393 32.1016C65.4988 32.607 62.671 35.8848 62.671 35.8848L62.1306 34.2332L63.0805 32.9932Z" fill="#333333"/>
<path d="M50.8011 22.0174L52.7914 19.4396C52.8619 19.3477 52.8979 19.2288 52.892 19.1078C52.886 18.9869 52.8386 18.8731 52.7595 18.7904L48.429 15.1134L47.902 16.0322L51.2584 18.9248L49.8319 20.674L50.8011 22.0174Z" fill="#FDA57D"/>
<path opacity="0.1" d="M50.5731 19.7712L49.8766 20.6261L50.8441 21.9705L51.8418 20.6815C51.3548 20.5081 50.9172 20.1941 50.5731 19.7712Z" fill="black"/>
<path d="M45.0214 22.5774L42.7684 20.6816C42.6311 20.566 42.5376 20.3968 42.5066 20.2076C42.4755 20.0185 42.509 19.8232 42.6006 19.6604L45.9721 15.4601L46.6618 16.2323L44.3333 19.4866L45.7111 21.0339L45.0214 22.5774Z" fill="#FDA57D"/>
<path opacity="0.1" d="M44.5466 22.1969L44.915 22.5069L45.6047 20.9634L44.7387 19.9939C44.7572 20.3227 44.8092 21.5985 44.5466 22.1969Z" fill="black"/>
<path d="M55.9565 30.0696L53.8882 37.0159L55.9565 37.7882L59.4035 30.0696L56.6463 29.2983L55.9565 30.0696Z" fill="#4D8AF0"/>
<path opacity="0.1" d="M55.861 30.2838L55.7578 30.6314L57.9294 30.2838L58.7777 31.4713L59.308 30.2838L56.5499 29.5125L55.861 30.2838Z" fill="black"/>
<path d="M45.9689 15.4685C45.9689 15.4685 46.8525 14.1937 47.5229 15.0514C48.1933 15.9091 46.4665 16.0162 46.4665 16.0162L45.9689 15.4685Z" fill="#FDA57D"/>
<path d="M46.9942 28.5261L47.6604 30.0189C47.8679 30.4832 48.2006 30.8628 48.6114 31.1037C49.0223 31.3446 49.4904 31.4348 49.9495 31.3614L58.024 30.0696L60.7821 33.928L62.8505 31.6122L58.4033 27.3424C58.2847 27.2284 58.146 27.1434 57.9963 27.093C57.8466 27.0425 57.6892 27.0276 57.534 27.0493L46.9942 28.5261Z" fill="#4D8AF0"/>
<path opacity="0.1" d="M44.9677 20.1996C44.9677 20.1996 45.1489 22.7061 44.46 22.7926L45.8387 23.5648C45.8387 23.5648 45.7623 28.1099 47.2173 29.7398C47.2173 29.7398 49.9024 28.1108 52.7327 28.1963C55.5629 28.2818 52.0429 25.1093 52.0429 25.1093L51.5772 21.5957L51.9607 20.9522C51.4409 20.7782 50.9755 20.4434 50.6181 19.9864C50.2347 20.5228 49.3595 21.25 48.5942 21.25H48.2645C47.1292 21.25 45.9217 20.9935 44.9652 20.3105L44.9677 20.1996Z" fill="black"/>
<path d="M44.8402 19.9854C44.8402 19.9854 45.0214 22.4919 44.3326 22.5783L45.7112 23.3496C45.7112 23.3496 45.6348 27.8947 47.0898 29.5247C47.0898 29.5247 49.7749 27.8956 52.6052 27.9811C55.4354 28.0666 51.9154 24.8941 51.9154 24.8941L51.4497 21.3805L51.8332 20.737C51.3134 20.563 50.848 20.2283 50.4907 19.7712C50.1072 20.3076 49.232 21.0348 48.4668 21.0348H48.137C46.9715 21.0351 45.829 20.6717 44.8377 19.9854H44.8402Z" fill="#3AD29F"/>
<path d="M46.656 19.2789V20.1404C46.656 20.5769 46.8108 20.9956 47.0864 21.3044L48.7235 23.1373L49.2689 21.916C49.3639 21.7033 49.4133 21.4689 49.4132 21.2311V19.277L46.656 19.2789Z" fill="#FDA57D"/>
<path opacity="0.1" d="M46.6771 20.271C46.6771 20.303 46.6771 20.334 46.6771 20.365C47.056 20.744 47.5464 20.9535 48.0545 20.9535C48.5626 20.9535 49.0529 20.744 49.4319 20.365V19.4095H46.6771V20.271Z" fill="black"/>
<path d="M48.0348 20.8225C49.1771 20.8225 50.1031 19.7857 50.1031 18.5067C50.1031 17.2278 49.1771 16.191 48.0348 16.191C46.8924 16.191 45.9664 17.2278 45.9664 18.5067C45.9664 19.7857 46.8924 20.8225 48.0348 20.8225Z" fill="#FDA57D"/>
<path opacity="0.1" d="M46.6561 17.8538H50.1031C50.1031 17.8538 51.4817 16.3102 50.1031 15.538C49.8037 15.3782 49.4901 15.2541 49.1675 15.1679C47.0698 14.5723 45.0777 16.5141 45.3471 18.9172C45.4109 19.4809 45.5929 19.9506 45.9663 20.1686C47.4222 21.0273 46.6561 17.8538 46.6561 17.8538Z" fill="black"/>
<path d="M46.6561 17.7467H50.1031C50.1031 17.7467 51.4817 16.2032 50.1031 15.431C49.8037 15.2711 49.4901 15.147 49.1675 15.0608C47.0698 14.4652 45.0777 16.4071 45.3471 18.8102C45.4109 19.3739 45.5929 19.8436 45.9663 20.0615C47.4222 20.9202 46.6561 17.7467 46.6561 17.7467Z" fill="#333333"/>
<path d="M46.7568 18.9125C46.8625 18.9125 46.9481 18.7443 46.9481 18.5368C46.9481 18.3292 46.8625 18.161 46.7568 18.161C46.6511 18.161 46.5655 18.3292 46.5655 18.5368C46.5655 18.7443 46.6511 18.9125 46.7568 18.9125Z" fill="#FDA57D"/>
<path opacity="0.1" d="M45.7027 23.3102L45.7984 22.988L46.0854 23.2031L45.7027 23.3102Z" fill="black"/>
<path opacity="0.1" d="M51.9206 24.8951C51.9206 24.8951 50.8776 25.4588 50.5898 25.9914L51.9206 24.8951Z" fill="black"/>
<path opacity="0.1" d="M51.4506 21.3796L51.3549 21.7009L51.1628 21.3796H51.4506Z" fill="black"/>
<path d="M46.6561 17.7467H50.1031C50.1031 17.7467 51.4817 16.2032 50.1031 15.431C49.8037 15.2711 49.4901 15.147 49.1675 15.0608C47.0698 14.4652 45.0777 16.4071 45.3471 18.8102C45.4109 19.3739 45.5929 19.8436 45.9663 20.0615C47.4222 20.9202 46.6561 17.7467 46.6561 17.7467Z" fill="#333333"/>
</g>
<defs>
<linearGradient id="paint0_linear_1_106" x1="35.5499" y1="33.0928" x2="35.5499" y2="19.1174" gradientUnits="userSpaceOnUse">
<stop stop-color="#808080" stop-opacity="0.25"/>
<stop offset="0.54" stop-color="#808080" stop-opacity="0.12"/>
<stop offset="1" stop-color="#808080" stop-opacity="0.1"/>
</linearGradient>
<linearGradient id="paint1_linear_1_106" x1="21919.7" y1="36646.4" x2="21919.7" y2="14602.6" gradientUnits="userSpaceOnUse">
<stop stop-color="#808080" stop-opacity="0.25"/>
<stop offset="0.54" stop-color="#808080" stop-opacity="0.12"/>
<stop offset="1" stop-color="#808080" stop-opacity="0.1"/>
</linearGradient>
<linearGradient id="paint2_linear_1_106" x1="19139.1" y1="12672.2" x2="19139.1" y2="5002.19" gradientUnits="userSpaceOnUse">
<stop stop-color="#808080" stop-opacity="0.25"/>
<stop offset="0.54" stop-color="#808080" stop-opacity="0.12"/>
<stop offset="1" stop-color="#808080" stop-opacity="0.1"/>
</linearGradient>
<clipPath id="clip0_1_106">
<rect width="72" height="75.5897" fill="white" transform="translate(0 0.641052)"/>
</clipPath>
</defs>
</svg>
