<svg width="32" height="30" viewBox="0 0 32 30" fill="none" xmlns="http://www.w3.org/2000/svg">
<path d="M17.7099 17.812V23.437C17.7099 23.6857 17.8126 23.9241 17.9955 24.0999C18.1783 24.2757 18.4263 24.3745 18.6849 24.3745H24.5349C24.7935 24.3745 25.0415 24.2757 25.2243 24.0999C25.4072 23.9241 25.5099 23.6857 25.5099 23.437V17.812C25.5099 17.5634 25.4072 17.3249 25.2243 17.1491C25.0415 16.9733 24.7935 16.8745 24.5349 16.8745H18.6849C18.4263 16.8745 18.1783 16.9733 17.9955 17.1491C17.8126 17.3249 17.7099 17.5634 17.7099 17.812ZM19.6599 22.4995V18.7495H23.5599V22.4995H19.6599Z" fill="#29D177"/>
<path d="M6.01005 -0.000488281C5.86714 -0.000436756 5.72599 0.0298214 5.59659 0.088144C5.46719 0.146467 5.35271 0.231427 5.26125 0.337012L0.386249 5.96201C0.240193 6.13042 0.160152 6.34273 0.160049 6.56201V9.37451C0.160049 11.0395 0.912749 12.5376 2.11005 13.567V29.062C2.11005 29.3107 2.21277 29.5491 2.39562 29.7249C2.57847 29.9007 2.82646 29.9995 3.08505 29.9995H28.4351C28.6936 29.9995 28.9416 29.9007 29.1245 29.7249C29.3073 29.5491 29.41 29.3107 29.41 29.062V13.567C30.6073 12.5358 31.3601 11.0395 31.3601 9.37451V6.56201V6.52826C31.3601 6.35951 31.3601 6.22451 31.1339 5.96201L26.2589 0.337012C26.1674 0.231427 26.0529 0.146467 25.9235 0.088144C25.7941 0.0298214 25.653 -0.000436756 25.51 -0.000488281H6.01005ZM6.01005 13.1245C4.97571 13.1245 3.98372 12.7294 3.25233 12.0262C2.52094 11.3229 2.11005 10.3691 2.11005 9.37451V7.49951H9.91005V9.37451C9.91005 10.3691 9.49916 11.3229 8.76777 12.0262C8.03637 12.7294 7.04439 13.1245 6.01005 13.1245ZM15.76 13.1245C14.7257 13.1245 13.7337 12.7294 13.0023 12.0262C12.2709 11.3229 11.8601 10.3691 11.8601 9.37451V7.49951H19.66V9.37451C19.66 10.3691 19.2492 11.3229 18.5178 12.0262C17.7864 12.7294 16.7944 13.1245 15.76 13.1245ZM25.51 13.1245C24.4757 13.1245 23.4837 12.7294 22.7523 12.0262C22.0209 11.3229 21.6101 10.3691 21.6101 9.37451V7.49951H29.41V9.37451C29.41 10.3691 28.9992 11.3229 28.2678 12.0262C27.5364 12.7294 26.5444 13.1245 25.51 13.1245ZM6.01005 28.1245H4.06005V14.6808C5.28913 15.0997 6.62862 15.1113 7.86536 14.7138C9.1021 14.3162 10.165 13.5324 10.885 12.487C11.4187 13.2603 12.1432 13.8945 12.9939 14.3329C13.8445 14.7713 14.7949 15.0004 15.76 14.9995C16.7254 15.0002 17.6759 14.7708 18.5266 14.3321C19.3772 13.8933 20.1016 13.2588 20.635 12.4851C21.3551 13.5305 22.418 14.3144 23.6547 14.7119C24.8915 15.1094 26.231 15.0978 27.4601 14.6789V28.1245H15.76V17.812C15.76 17.5634 15.6573 17.3249 15.4745 17.1491C15.2916 16.9733 15.0436 16.8745 14.785 16.8745H6.98505C6.72646 16.8745 6.47847 16.9733 6.29562 17.1491C6.11277 17.3249 6.01005 17.5634 6.01005 17.812V28.1245ZM10.183 5.62451H3.21765L6.46635 1.87451H11.4818L10.183 5.62451ZM19.2817 5.62451H12.2383L13.537 1.87451H17.9831L19.2817 5.62451ZM21.337 5.62451L20.0384 1.87451H25.0537L28.3044 5.62451H21.337ZM7.96005 28.1245V18.7495H13.8101V28.1245H7.96005Z" fill="#29D177"/>
</svg>
