<svg width="55" height="55" viewBox="0 0 55 55" fill="none" xmlns="http://www.w3.org/2000/svg">
<g clip-path="url(#clip0_1_310)">
<path d="M31.0493 13.5352H42.2211V47.0508C42.2211 47.5066 42.0401 47.9438 41.7177 48.2661C41.3954 48.5885 40.9582 48.7695 40.5024 48.7695H32.768C32.3122 48.7695 31.875 48.5885 31.5527 48.2661C31.2304 47.9438 31.0493 47.5066 31.0493 47.0508V13.5352Z" fill="#FFC32E"/>
<path d="M35.3461 43.6133C35.3461 44.0691 35.5272 44.5063 35.8496 44.8286C36.1719 45.151 36.6091 45.332 37.0649 45.332H42.2211V13.5352H35.3461V43.6133Z" fill="#FFD473"/>
<path d="M42.2211 18.6914H31.0493V42.7539H42.2211V18.6914Z" fill="#F6921E"/>
<path d="M42.2211 18.6914H35.3461V42.7539H42.2211V18.6914Z" fill="#F99B3E"/>
<path d="M42.2211 6.23047H31.0493C30.1 6.23047 29.3305 6.99998 29.3305 7.94922V11.8164C29.3305 12.7656 30.1 13.5352 31.0493 13.5352H42.2211C43.1704 13.5352 43.9399 12.7656 43.9399 11.8164V7.94922C43.9399 6.99998 43.1704 6.23047 42.2211 6.23047Z" fill="#D6EBF2"/>
<path d="M42.2211 28.282V47.0508C42.2211 47.5066 42.0401 47.9438 41.7177 48.2661C41.3954 48.5885 40.9582 48.7695 40.5024 48.7695H32.768C32.3122 48.7695 31.875 48.5885 31.5527 48.2661C31.2304 47.9438 31.0493 47.5066 31.0493 47.0508V13.5352H42.2211V23.6328" stroke="black" stroke-linecap="round" stroke-linejoin="round"/>
<path d="M42.2211 42.7539H31.0493V18.6914H42.2211" stroke="black" stroke-linecap="round" stroke-linejoin="round"/>
<path d="M29.3305 9.23828V11.8164C29.3305 12.2722 29.5116 12.7094 29.8339 13.0317C30.1563 13.3541 30.5934 13.5352 31.0493 13.5352H42.2211C42.677 13.5352 43.1142 13.3541 43.4365 13.0317C43.7588 12.7094 43.9399 12.2722 43.9399 11.8164V9.23828H29.3305Z" fill="#BDD5DB"/>
<path d="M42.2211 6.23047H31.0493C30.1 6.23047 29.3305 6.99998 29.3305 7.94922V11.8164C29.3305 12.7656 30.1 13.5352 31.0493 13.5352H42.2211C43.1704 13.5352 43.9399 12.7656 43.9399 11.8164V7.94922C43.9399 6.99998 43.1704 6.23047 42.2211 6.23047Z" stroke="black" stroke-linecap="round" stroke-linejoin="round"/>
<path d="M31.6851 25.5664H29.9664V22.9883H14.4976V25.5664H12.7789C12.323 25.5664 11.8858 25.7475 11.5635 26.0698C11.2412 26.3921 11.0601 26.8293 11.0601 27.2852V45.332C11.0601 46.2437 11.4223 47.1181 12.0669 47.7627C12.7116 48.4074 13.5859 48.7695 14.4976 48.7695H29.9664C30.878 48.7695 31.7524 48.4074 32.397 47.7627C33.0417 47.1181 33.4039 46.2437 33.4039 45.332V27.2852C33.4039 26.8293 33.2228 26.3921 32.9004 26.0698C32.5781 25.7475 32.1409 25.5664 31.6851 25.5664Z" fill="#B6D99E"/>
<path d="M31.6938 25.5664H29.9751V22.9883H17.2993V42.4875C17.2993 43.4698 17.6895 44.4119 18.3841 45.1066C19.0787 45.8012 20.0208 46.1914 21.0032 46.1914H33.2922C33.2922 46.0883 33.3438 45.9766 33.361 45.8648C33.392 45.6888 33.4092 45.5107 33.4126 45.332V27.2852C33.4126 26.8293 33.2315 26.3921 32.9091 26.0698C32.5868 25.7475 32.1496 25.5664 31.6938 25.5664Z" fill="#C8E8AF"/>
<path d="M33.4039 41.7227C33.4039 41.7227 28.5742 41.8945 21.6992 41.8945C14.8242 41.8945 11.0601 41.7227 11.0601 41.7227V30.7227C11.0601 30.7227 15.6835 30.8945 21.6992 30.8945C27.7148 30.8945 33.4039 30.7227 33.4039 30.7227V41.7227Z" fill="#29D177"/>
<path d="M17.2993 30.8602V41.8688C18.5826 41.8688 20.0521 41.8688 21.7079 41.8688C28.5829 41.8688 33.4126 41.6969 33.4126 41.6969V30.7227C33.4126 30.7227 27.7235 30.8945 21.7079 30.8945C20.118 30.8945 18.6313 30.8773 17.2993 30.8602Z" fill="#94D363"/>
<path d="M29.9664 15.2539H14.4976C13.5484 15.2539 12.7789 16.0234 12.7789 16.9727V21.2695C12.7789 22.2188 13.5484 22.9883 14.4976 22.9883H29.9664C30.9156 22.9883 31.6851 22.2188 31.6851 21.2695V16.9727C31.6851 16.0234 30.9156 15.2539 29.9664 15.2539Z" fill="#D6EBF2"/>
<path d="M31.6851 25.5664H29.9664V22.9883H14.4976V25.5664H12.7789C12.323 25.5664 11.8858 25.7475 11.5635 26.0698C11.2412 26.3921 11.0601 26.8293 11.0601 27.2852V45.332C11.0601 46.2437 11.4223 47.1181 12.0669 47.7627C12.7116 48.4074 13.5859 48.7695 14.4976 48.7695H29.9664C30.878 48.7695 31.7524 48.4074 32.397 47.7627C33.0417 47.1181 33.4039 46.2437 33.4039 45.332V27.2852C33.4039 26.8293 33.2228 26.3921 32.9004 26.0698C32.5781 25.7475 32.1409 25.5664 31.6851 25.5664Z" stroke="black" stroke-linecap="round" stroke-linejoin="round"/>
<path d="M33.4039 41.7227C33.4039 41.7227 28.5742 41.8945 21.6992 41.8945C14.8242 41.8945 11.0601 41.7227 11.0601 41.7227V30.7227C11.0601 30.7227 15.6835 30.8945 21.6992 30.8945C27.7148 30.8945 33.4039 30.7227 33.4039 30.7227V41.7227Z" stroke="black" stroke-linecap="round" stroke-linejoin="round"/>
<path d="M25.0336 35.0711H23.4782V33.5156H20.9946V35.0711H19.4477V37.5461H20.9946V39.1016H23.4782V37.5461H25.0336V35.0711Z" fill="white"/>
<path d="M25.0336 35.0711H23.4782V33.5156H20.9946V35.0711H19.4477V37.5461H20.9946V39.1016H23.4782V37.5461H25.0336V35.0711Z" stroke="black" stroke-linecap="round" stroke-linejoin="round"/>
<path d="M12.7876 18.6914V21.2695C12.7876 21.7254 12.9686 22.1625 13.291 22.4849C13.6133 22.8072 14.0505 22.9883 14.5063 22.9883H29.9751C30.4309 22.9883 30.8681 22.8072 31.1904 22.4849C31.5127 22.1625 31.6938 21.7254 31.6938 21.2695V18.6914H12.7876Z" fill="#BDD5DB"/>
<path d="M29.9664 15.2539H14.4976C13.5484 15.2539 12.7789 16.0234 12.7789 16.9727V21.2695C12.7789 22.2188 13.5484 22.9883 14.4976 22.9883H29.9664C30.9156 22.9883 31.6851 22.2188 31.6851 21.2695V16.9727C31.6851 16.0234 30.9156 15.2539 29.9664 15.2539Z" stroke="black" stroke-linecap="round" stroke-linejoin="round"/>
</g>
<defs>
<clipPath id="clip0_1_310">
<rect width="55" height="55" fill="white"/>
</clipPath>
</defs>
</svg>
