<svg width="29" height="33" viewBox="0 0 29 33" fill="none" xmlns="http://www.w3.org/2000/svg">
<path d="M3.04344 10.9453C2.75613 10.9453 2.48058 11.0668 2.27742 11.2832C2.07425 11.4996 1.96012 11.7931 1.96012 12.0991V27.6759C1.96012 29.8567 3.70427 31.7144 5.75176 31.7144H24.1683C26.2158 31.7144 27.9599 29.9468 27.9599 27.7661V12.0991C27.9599 11.7931 27.8458 11.4996 27.6426 11.2832C27.4395 11.0668 27.1639 10.9453 26.8766 10.9453H3.04344Z" stroke="#7D7D7D" stroke-width="2" stroke-linecap="round" stroke-linejoin="round"/>
<path d="M8.45938 10.9451V8.63739C8.45938 6.80129 9.1442 5.04039 10.3632 3.74207C11.5822 2.44374 13.2354 1.71436 14.9593 1.71436V1.71436C16.6832 1.71436 18.3365 2.44374 19.5555 3.74207C20.7745 5.04039 21.4593 6.80129 21.4593 8.63739V10.9451" stroke="#7D7D7D" stroke-width="2" stroke-linecap="round" stroke-linejoin="round"/>
<path d="M8.45938 14.4067V15.5606C8.45938 17.3967 9.1442 19.1576 10.3632 20.4559C11.5822 21.7542 13.2354 22.4836 14.9593 22.4836C16.6832 22.4836 18.3365 21.7542 19.5555 20.4559C20.7745 19.1576 21.4593 17.3967 21.4593 15.5606V14.4067" stroke="#7D7D7D" stroke-width="2" stroke-linecap="round" stroke-linejoin="round"/>
</svg>
