<svg width="30" height="30" viewBox="0 0 30 30" fill="none" xmlns="http://www.w3.org/2000/svg">
<path d="M22.4849 3.26134C16.7216 3.36884 12.7083 0.457174 9.93077 0.509674C7.15327 0.562174 1.35077 2.26717 1.58994 15.043C1.8291 27.8188 9.70994 29.5463 12.7649 29.4897C27.0683 29.2222 32.6908 3.07051 22.4849 3.26134Z" fill="#EFEFEF"/>
<path d="M9.70246 18.2855C9.00163 18.5655 8.54163 19.2446 8.54163 19.9996C8.54163 20.7546 9.00163 21.4338 9.70246 21.7138C10.1441 21.8905 10.625 21.5655 10.625 21.0888V18.9096C10.625 18.4338 10.1441 18.1088 9.70246 18.2855Z" fill="#F3F3F1"/>
<path d="M20.2974 18.2855C20.9983 18.5655 21.4583 19.2446 21.4583 19.9996C21.4583 20.7546 20.9983 21.4338 20.2974 21.7138C19.8558 21.8905 19.3749 21.5655 19.3749 21.0888V18.9096C19.3749 18.4338 19.8558 18.1088 20.2974 18.2855Z" fill="#F3F3F1"/>
<path d="M18.5417 15.6247H17.0834H16.875V18.5414H13.125V15.6247H12.9167H11.4584C10.5417 15.6247 9.79169 16.3747 9.79169 17.2914V18.258V18.2739C10.2067 18.1705 10.625 18.4664 10.625 18.9105V21.0897C10.625 21.5339 10.2067 21.8289 9.79169 21.7264V21.7422V22.7089C9.79169 23.6255 10.5417 24.3755 11.4584 24.3755H18.5417C19.4584 24.3755 20.2084 23.6255 20.2084 22.7089V21.8089V21.7264C19.7934 21.8297 19.375 21.5339 19.375 21.0897V18.9105C19.375 18.4664 19.7934 18.1714 20.2084 18.2739V18.1914V17.2914C20.2084 16.3747 19.4584 15.6247 18.5417 15.6247Z" fill="#29D177"/>
<path d="M13.125 15.6247H16.875V18.5414H13.125V15.6247Z" fill="#29D177"/>
<path d="M19.3924 10.0272L18.8115 7.39634C18.6782 6.793 18.2107 6.3205 17.609 6.18217L15.3607 5.6655C15.1257 5.61134 14.8815 5.61134 14.6465 5.6655L12.3899 6.183C11.7882 6.32134 11.3199 6.79384 11.1865 7.39717L10.6057 10.0272C10.6057 11.3255 11.0224 12.9322 12.0557 14.0088C12.744 14.7263 13.7065 15.208 15.0024 15.208C16.299 15.208 17.2615 14.7222 17.949 14.0088C18.9757 12.9438 19.3899 11.3713 19.3899 10.148C19.3924 10.1197 19.3924 10.0272 19.3924 10.0272Z" fill="#F3F3F1"/>
<path d="M13.125 15.6247H16.875V18.5414H13.125V15.6247Z" fill="#00B871"/>
<path d="M18.75 15.6455C18.6808 15.6364 18.6133 15.6247 18.5417 15.6247H17.0833H16.875V18.5414H18.75V15.6455Z" fill="#00B871"/>
<path d="M11.6667 22.708V21.7414V21.7255C12.0817 21.8289 12.5 21.533 12.5 21.0889V18.9097C12.5 18.4655 12.0817 18.1705 11.6667 18.273V18.258V17.2914C11.6667 16.4464 12.3067 15.7505 13.125 15.6455V15.6247H12.9167H11.4584C10.5417 15.6247 9.79169 16.3747 9.79169 17.2914V18.258V18.2739C10.2067 18.1705 10.625 18.4664 10.625 18.9105V21.0897C10.625 21.5339 10.2067 21.8289 9.79169 21.7264V21.7422V22.7089C9.79169 23.6255 10.5417 24.3755 11.4584 24.3755H13.3334C12.4167 24.3747 11.6667 23.6247 11.6667 22.708Z" fill="#00B871"/>
<path d="M15 15.6247H18.75V18.5414H15V15.6247Z" fill="#00B871"/>
<path d="M13.9325 14.0088C12.8983 12.9322 12.4825 11.3255 12.4825 10.0272L13.0633 7.39717C13.1966 6.79384 13.665 6.3205 14.2666 6.183L15.9416 5.79884L15.3625 5.6655C15.1275 5.61134 14.8833 5.61134 14.6483 5.6655L12.3916 6.183C11.79 6.32134 11.3216 6.79384 11.1883 7.39717L10.6075 10.0272C10.6075 11.3255 11.0241 12.9322 12.0575 14.0088C12.7458 14.7263 13.7083 15.208 15.0041 15.208C15.3391 15.208 15.65 15.173 15.9408 15.113C15.1058 14.9405 14.4433 14.5405 13.9325 14.0088Z" fill="#D5DBE1"/>
<path d="M23.435 24.3085C22.7458 24.3085 22.185 23.7477 22.185 23.0585C22.185 22.3694 22.7458 21.8085 23.435 21.8085C24.1242 21.8085 24.685 22.3694 24.685 23.0585C24.685 23.7477 24.1242 24.3085 23.435 24.3085ZM23.435 22.6419C23.2058 22.6419 23.0183 22.8285 23.0183 23.0585C23.0183 23.2885 23.2058 23.4752 23.435 23.4752C23.6642 23.4752 23.8517 23.2885 23.8517 23.0585C23.8517 22.8285 23.6642 22.6419 23.435 22.6419Z" fill="#A4AFC1"/>
<path d="M4.47906 10.7289H5.3124V12.3956H4.47906V10.7289Z" fill="#A4AFC1"/>
<path d="M4.47906 15.521H5.3124V17.1877H4.47906V15.521Z" fill="#A4AFC1"/>
<path d="M1.56244 13.4369H3.22911V14.2702H1.56244V13.4369Z" fill="#A4AFC1"/>
<path d="M6.35406 13.4369H8.02073V14.2702H6.35406V13.4369Z" fill="#A4AFC1"/>
<path d="M13.3334 11.6664C12.8734 11.6664 12.5001 11.2922 12.5001 10.833C12.5001 10.3739 12.8734 9.99969 13.3334 9.99969C13.7934 9.99969 14.1667 10.3739 14.1667 10.833C14.1667 11.2922 13.7934 11.6664 13.3334 11.6664Z" fill="black"/>
<path d="M16.6882 11.6664C16.2282 11.6664 15.8549 11.2922 15.8549 10.833C15.8549 10.3739 16.2282 9.99969 16.6882 9.99969C17.1482 9.99969 17.5216 10.3739 17.5216 10.833C17.5216 11.2922 17.1482 11.6664 16.6882 11.6664Z" fill="black"/>
<path d="M15.005 14.1638C14.47 14.1638 13.9367 13.9672 13.5292 13.5747L13.0792 13.1405L13.9475 12.2413L14.3967 12.6755C14.7317 12.9988 15.2775 12.9988 15.6125 12.6755L16.0617 12.2413L16.93 13.1405L16.48 13.5747C16.0733 13.9672 15.5392 14.1638 15.005 14.1638Z" fill="black"/>
<path d="M19.899 10.6689L19.4065 10.2839C19.394 10.2748 17.9074 9.16644 15.0049 9.16644C12.1007 9.16644 10.604 10.2756 10.589 10.2873L10.094 10.6631L9.33405 9.67977L9.82404 9.29811C9.89654 9.24144 11.639 7.91644 15.0049 7.91644C18.3707 7.91644 20.1049 9.24311 20.1765 9.29894L20.669 9.68394L19.899 10.6689Z" fill="black"/>
<path d="M18.5417 25.0002H11.4584C10.1942 25.0002 9.16675 23.9718 9.16675 22.7085V21.7418H10.4167V22.7085C10.4167 23.2827 10.8842 23.7502 11.4584 23.7502H18.5417C19.1159 23.7502 19.5834 23.2827 19.5834 22.7085V21.8085H20.8334V22.7085C20.8334 23.9718 19.8059 25.0002 18.5417 25.0002Z" fill="black"/>
<path d="M10.4167 18.2583H9.16675V17.2917C9.16675 16.0283 10.1942 15 11.4584 15H18.5417C19.8059 15 20.8334 16.0283 20.8334 17.2917V18.1917H19.5834V17.2917C19.5834 16.7175 19.1159 16.25 18.5417 16.25H11.4584C10.8842 16.25 10.4167 16.7175 10.4167 17.2917V18.2583Z" fill="black"/>
<path d="M16.8751 19.1667H13.1251C12.7801 19.1667 12.5001 18.8867 12.5001 18.5417V15.625C12.5001 15.28 12.7801 15 13.1251 15H16.8751C17.2201 15 17.5001 15.28 17.5001 15.625V18.5417C17.5001 18.8867 17.2201 19.1667 16.8751 19.1667ZM13.7501 17.9167H16.2501V16.25H13.7501V17.9167Z" fill="black"/>
<path d="M20.0483 22.3871C19.7917 22.3871 19.5392 22.3113 19.32 22.1638C18.9633 21.9221 18.75 21.5205 18.75 21.0896V18.9105C18.75 18.4796 18.9633 18.078 19.32 17.8363C19.6783 17.5938 20.1308 17.5446 20.53 17.7055C21.4742 18.083 22.0833 18.983 22.0833 19.9996C22.0833 21.0163 21.4742 21.9163 20.53 22.2938C20.3742 22.3563 20.2108 22.3871 20.0483 22.3871ZM20.0483 18.8613C20.04 18.8613 20.0308 18.863 20.0217 18.8705L20 21.0896C20.5325 20.9471 20.8333 20.5021 20.8333 19.9996C20.8333 19.4971 20.5325 19.0521 20.0658 18.8655C20.0617 18.8638 20.055 18.8613 20.0483 18.8613Z" fill="black"/>
<path d="M9.95169 22.3875C9.78919 22.3875 9.62502 22.3566 9.47002 22.295C8.52585 21.9166 7.91669 21.0166 7.91669 20C7.91669 18.9833 8.52585 18.0833 9.47002 17.7058C9.87002 17.5458 10.3217 17.595 10.68 17.8366C11.0367 18.0783 11.25 18.48 11.25 18.9108V21.09C11.25 21.5208 11.0367 21.9225 10.68 22.1641C10.4617 22.3116 10.2075 22.3875 9.95169 22.3875ZM9.70252 18.2858L9.93419 18.8658C9.46752 19.0525 9.16669 19.4975 9.16669 20C9.16669 20.5025 9.46752 20.9475 9.93419 21.1341L10 18.91L9.70252 18.2858Z" fill="black"/>
<path d="M18.3791 13.9877L17.5016 13.0969C18.4216 12.1919 18.75 10.8502 18.75 9.89691V9.85441L18.1875 7.44024C18.11 7.10774 17.8266 6.84191 17.4666 6.76358L15.2266 6.27524C15.0816 6.24358 14.9291 6.24358 14.7824 6.27524L12.5349 6.76358C12.1733 6.84191 11.8908 7.10858 11.8124 7.44108L11.2516 9.85191C11.2683 10.8561 11.6058 12.2044 12.5099 13.0977L11.6308 13.9869C10.6091 12.9786 9.99994 11.4069 9.99994 9.78274C9.99994 9.72858 10.0074 9.67524 10.0199 9.62441L10.5933 7.15691C10.7816 6.35608 11.4383 5.72191 12.2683 5.54191L14.5158 5.05358C14.8366 4.98441 15.1741 4.98524 15.4916 5.05358L17.7316 5.54191C18.5608 5.72191 19.2175 6.35691 19.4041 7.15691L19.9825 9.64108C19.9933 9.68774 19.9991 9.73524 19.9991 9.78274V9.89691C20 11.1027 19.5741 12.8111 18.3791 13.9877Z" fill="black"/>
</svg>
