<svg width="50" height="50" viewBox="0 0 50 50" fill="none" xmlns="http://www.w3.org/2000/svg">
<path d="M29.5 20.5C32.75 20.5 34.75 15.75 34.75 12.75C34.75 10.25 33.5 7.25 31 7.25C27.75 7.25 25.75 12 25.75 15C25.75 17.5 27 20.5 29.5 20.5ZM20 20.5C22.5 20.5 23.75 17.5 23.75 15C23.75 11.75 21.75 7 18.5 7C16 7 14.75 10 14.75 12.5C14.5 15.75 16.5 20.5 20 20.5ZM38.5 18C35.25 18 33 22.5 33 25.75C33 28 34 30.25 36.25 30.25C39.5 30.25 41.75 25.75 41.75 22.5C41.75 20.25 40.5 18 38.5 18ZM16.75 25.75C16.75 22.5 14.25 18 11.25 18C9 18 8 20.25 8 22.5C8 25.75 10.5 30.25 13.5 30.25C15.75 30.25 16.75 28 16.75 25.75ZM24.75 25.25C19.75 25.25 13 33.25 13 38.75C13 41.25 14.75 42 16.75 42C19.75 42 22 40 24.75 40C27.25 40 29.5 42 32.25 42C34.25 42 36.5 41.5 36.5 38.75C36.5 33.25 29.75 25.25 24.75 25.25Z" fill="#FFB044"/>
</svg>
