<svg width="38" height="32" viewBox="0 0 38 32" fill="none" xmlns="http://www.w3.org/2000/svg">
<path d="M26.8462 30.9997V27.6663C26.8462 25.8982 26.1728 24.2025 24.9742 22.9523C23.7755 21.702 22.1498 20.9996 20.4546 20.9996H7.67148C5.97632 20.9996 4.3506 21.702 3.15194 22.9523C1.95329 24.2025 1.27989 25.8982 1.27989 27.6663V30.9997" stroke="#7D7D7D" stroke-width="2" stroke-linecap="round" stroke-linejoin="round"/>
<path d="M14.0635 14.3329C17.5935 14.3329 20.4551 11.3482 20.4551 7.66623C20.4551 3.9843 17.5935 0.999512 14.0635 0.999512C10.5336 0.999512 7.67195 3.9843 7.67195 7.66623C7.67195 11.3482 10.5336 14.3329 14.0635 14.3329Z" stroke="#7D7D7D" stroke-width="2" stroke-linecap="round" stroke-linejoin="round"/>
<path d="M36.4361 30.9997V27.6664C36.435 26.1892 35.9636 24.7543 35.096 23.5869C34.2284 22.4194 33.0136 21.5856 31.6424 21.2163" stroke="#7D7D7D" stroke-width="2" stroke-linecap="round" stroke-linejoin="round"/>
<path d="M25.2488 1.21631C26.6236 1.58348 27.8422 2.41749 28.7124 3.58684C29.5826 4.7562 30.055 6.1944 30.055 7.67469C30.055 9.15498 29.5826 10.5932 28.7124 11.7625C27.8422 12.9319 26.6236 13.7659 25.2488 14.1331" stroke="#7D7D7D" stroke-width="2" stroke-linecap="round" stroke-linejoin="round"/>
</svg>
