<svg width="40" height="41" viewBox="0 0 40 41" fill="none" xmlns="http://www.w3.org/2000/svg">
<path fill-rule="evenodd" clip-rule="evenodd" d="M18.8795 33.0504L35.3904 16.5395L39.1429 20.2921L22.6319 36.803L18.8795 33.0504Z" fill="#FFB1B1"/>
<path fill-rule="evenodd" clip-rule="evenodd" d="M22.632 36.803L15.1271 40.5555L18.8796 33.0504L22.632 36.803Z" fill="#FFE2D4"/>
<path fill-rule="evenodd" clip-rule="evenodd" d="M1 2.41296V39.1431L37.7302 2.41296H1ZM9.50235 11.5955H19.7052L9.50235 21.7983V11.5955Z" fill="#87DDB7"/>
<path d="M24.8393 15.3036L20.0714 20.0714L1 39.1429V1H39.1429L34.375 5.76786L29.6071 10.5357" stroke="#586597" stroke-linecap="round" stroke-linejoin="round"/>
<path d="M27.9708 14.2978C27.9708 14.6879 27.6545 15.0042 27.2644 15.0042C26.8742 15.0042 26.5581 14.6879 26.5581 14.2978C26.5581 13.9078 26.8742 13.5915 27.2644 13.5915C27.6545 13.5915 27.9708 13.9078 27.9708 14.2978ZM29.639 30.6731C29.639 31.0632 29.3227 31.3795 28.9327 31.3795C28.5425 31.3795 28.2263 31.0632 28.2263 30.6731C28.2263 30.2831 28.5425 29.9668 28.9327 29.9668C29.3227 29.9668 29.639 30.2831 29.639 30.6731Z" fill="#586597"/>
<path d="M22.6239 35.3826L18.8866 31.6454M20.4242 10.5355L9.82892 10.5357V21.1308L20.4242 10.5355ZM11.5948 3.46205V1.36249V3.46205ZM8.06305 4.87475V1.36266V4.87475ZM18.6583 3.46205V1.36249V3.46205ZM15.1265 4.87475V1.36266V4.87475ZM25.7218 3.46205V1.36249V3.46205ZM22.19 4.87475V1.36266V4.87475ZM29.2535 4.87475V1.36266V4.87475ZM3.46212 11.5949H1.36273H3.46212ZM4.87482 8.06315H1.36273H4.87482ZM3.46212 18.6586H1.36273H3.46212ZM4.87482 15.1268H1.36273H4.87482ZM3.46212 25.7221H1.36273H3.46212ZM4.87482 22.1903H1.36273H4.87482ZM4.87482 29.2538H1.36273H4.87482ZM26.7592 31.2626L22.6315 35.3903L15.1265 39.1429L18.879 31.6377L35.3899 15.1268L39.1424 18.8792L30.887 27.1347L26.7592 31.2626Z" stroke="#586597" stroke-linecap="round" stroke-linejoin="round"/>
</svg>
