<svg width="12" height="12" viewBox="0 0 12 12" fill="none" xmlns="http://www.w3.org/2000/svg">
<path d="M10.642 4.13787L7.66658 3.70545L6.3365 1.00897C6.30018 0.935139 6.24041 0.875374 6.16658 0.839045C5.98142 0.747639 5.75642 0.823811 5.66385 1.00897L4.33377 3.70545L1.35838 4.13787C1.27635 4.14959 1.20135 4.18826 1.14392 4.24686C1.0745 4.31821 1.03625 4.4142 1.03757 4.51374C1.03889 4.61328 1.07967 4.70823 1.15096 4.77772L3.30369 6.87655L2.7951 9.84022C2.78317 9.90916 2.7908 9.98006 2.81712 10.0449C2.84344 10.1097 2.8874 10.1659 2.94401 10.207C3.00062 10.2481 3.06761 10.2725 3.1374 10.2775C3.20719 10.2825 3.27698 10.2678 3.33885 10.2351L6.00017 8.83592L8.6615 10.2351C8.73416 10.2738 8.81853 10.2867 8.89939 10.2726C9.1033 10.2375 9.24041 10.0441 9.20525 9.84022L8.69666 6.87655L10.8494 4.77772C10.908 4.7203 10.9467 4.6453 10.9584 4.56326C10.99 4.35819 10.8471 4.16834 10.642 4.13787Z" fill="#474747"/>
</svg>
