<svg width="40" height="40" viewBox="0 0 40 40" fill="none" xmlns="http://www.w3.org/2000/svg">
<path d="M37.1246 3.40839V36.5658H2.8755V3.41672L37.1246 3.40839Z" fill="#FFE6A2"/>
<path d="M33.7755 20.7253H25.6754V36.5673H33.7755V20.7253Z" fill="#FFB044"/>
<path d="M21.6817 20.7287H7.10559V29.6747H21.6817V20.7287Z" fill="#FFB044"/>
<path d="M37.1248 0.625H2.85408V3.40493H37.1248V0.625Z" fill="#FFC261"/>
<path d="M39.374 36.5665H0.625V39.3748H39.374V36.5665Z" fill="#FFC261"/>
<path d="M25.6746 34.7657H2.87424V36.5658H25.6746V34.7657Z" fill="#FFD486"/>
<path d="M37.124 34.7657H33.7739V36.5658H37.124V34.7657Z" fill="#FFD486"/>
<path d="M33.7743 34.7657H25.6741V36.5658H33.7743V34.7657Z" fill="#FFA844"/>
<path d="M37.1246 5.01678V17.2915C36.7504 17.4619 36.3506 17.5689 35.9413 17.6081C34.9775 17.7051 34.0131 17.4305 33.245 16.8404C32.4768 16.2504 31.9629 15.3894 31.8081 14.4332L31.7581 14.1665H31.6914C31.6692 15.1714 31.2586 16.1286 30.5458 16.8372C29.8329 17.5458 28.8733 17.9506 27.8683 17.9668C26.8634 17.983 25.8912 17.6092 25.1559 16.9239C24.4207 16.2386 23.9795 15.2952 23.9249 14.2915V14.1665H23.8916C23.8705 15.1836 23.4517 16.1519 22.725 16.8638C21.9983 17.5756 21.0215 17.9743 20.0042 17.9743C18.9869 17.9743 18.0102 17.5756 17.2834 16.8638C16.5567 16.1519 16.1379 15.1836 16.1168 14.1665H16.0835L16.0752 14.2915C16.0206 15.2952 15.5794 16.2386 14.8442 16.9239C14.1089 17.6092 13.1367 17.983 12.1318 17.9668C11.1268 17.9506 10.1672 17.5458 9.45432 16.8372C8.74148 16.1286 8.33088 15.1714 8.30869 14.1665H8.24203L8.19203 14.4332C8.03723 15.3894 7.52328 16.2504 6.75513 16.8404C5.98697 17.4305 5.02256 17.7051 4.05881 17.6081C3.64954 17.5689 3.24965 17.4619 2.8755 17.2915V5.01678H37.1246Z" fill="#FFD486"/>
<path d="M31.0153 14.6581C30.5563 15.3281 29.899 15.8375 29.1358 16.115C28.3725 16.3925 27.5416 16.4241 26.7595 16.2054C25.9773 15.9867 25.2833 15.5286 24.7748 14.8954C24.2662 14.2622 23.9686 13.4857 23.9238 12.6748L23.4238 3.40839H30.2736L31.6486 11.8415C31.8126 12.827 31.5854 13.8376 31.0153 14.6581ZM9.72417 3.40839L8.19087 12.8165C8.04444 13.7068 7.58756 14.5166 6.90119 15.1023C6.21481 15.688 5.34327 16.0118 4.44097 16.0164C4.31297 16.0192 4.18493 16.0136 4.05765 15.9997C3.50677 15.9445 2.97453 15.7699 2.49791 15.4882C2.0213 15.2065 1.61175 14.8244 1.29772 14.3684C0.983697 13.9124 0.772727 13.3935 0.679477 12.8478C0.586227 12.302 0.612932 11.7426 0.757738 11.2082L2.87435 3.40839H9.72417Z" fill="#EE6148"/>
<path d="M16.5749 3.40839L16.0749 12.6748C16.0167 13.6664 15.5826 14.5985 14.8611 15.2813C14.1396 15.964 13.185 16.3461 12.1917 16.3497C11.1622 16.3508 10.1742 15.9435 9.44463 15.217C8.71506 14.4906 8.30347 13.5044 8.30016 12.4748C8.30023 12.2627 8.31695 12.051 8.35015 11.8415L9.72512 3.40839H16.5749ZM23.9081 12.4581C23.9041 12.9781 23.7964 13.4921 23.5912 13.9699C23.3861 14.4477 23.0876 14.8797 22.7133 15.2407C22.3389 15.6016 21.8963 15.8842 21.4114 16.0718C20.9264 16.2595 20.4089 16.3484 19.8891 16.3334C19.3693 16.3185 18.8578 16.1999 18.3844 15.9846C17.9111 15.7693 17.4855 15.4618 17.1326 15.0799C16.7796 14.698 16.5065 14.2495 16.3292 13.7606C16.1519 13.2718 16.0739 12.7525 16.0999 12.2332L16.5749 3.40839H23.4248L23.8997 12.2332C23.8997 12.3082 23.9081 12.3831 23.9081 12.4581ZM38.7243 14.3331C38.4119 14.7988 38.0004 15.1897 37.5192 15.4778C37.038 15.7659 36.4992 15.9442 35.9411 15.9997C35.8138 16.0136 35.6858 16.0192 35.5578 16.0164C34.6544 16.0158 33.7807 15.6934 33.0935 15.107C32.4063 14.5206 31.9505 13.7085 31.8079 12.8165L30.2746 3.40839H37.1244L39.241 11.2082C39.3841 11.7356 39.412 12.2877 39.3229 12.8269C39.2337 13.3661 39.0296 13.8798 38.7243 14.3331Z" fill="#EE6148"/>
<path d="M31.016 14.6581C30.4403 14.9025 29.8142 15.0047 29.1907 14.9558C28.5671 14.907 27.9646 14.7086 27.434 14.3775C26.9034 14.0464 26.4604 13.5923 26.1425 13.0536C25.8246 12.515 25.6412 11.9077 25.6078 11.2832L25.1828 3.40839H30.2743L31.6493 11.8415C31.8133 12.827 31.5861 13.8376 31.016 14.6581ZM9.72488 3.40839L8.19159 12.8165C8.10534 13.3534 7.90347 13.8652 7.59994 14.3164C7.13213 14.5206 6.62707 14.6256 6.11664 14.6248C5.98864 14.6275 5.8606 14.622 5.73332 14.6081C5.18345 14.553 4.65218 14.3788 4.17648 14.0975C3.70077 13.8162 3.29207 13.4347 2.97878 12.9795C2.6655 12.5242 2.45517 12.0062 2.36243 11.4614C2.26968 10.9166 2.29675 10.3581 2.44174 9.82488L4.18336 3.40839H9.72488ZM16.5747 3.40839L16.0747 12.6748C16.0363 13.3828 15.8027 14.0663 15.3997 14.6498C14.9194 14.8615 14.3997 14.9694 13.8748 14.9664C12.8443 14.9658 11.8561 14.5567 11.1267 13.8288C10.3973 13.101 9.98607 12.1136 9.98321 11.0832C9.98329 10.8711 10 10.6593 10.0332 10.4499L11.1832 3.40839H16.5747ZM23.9078 12.4581C23.9079 13.2399 23.6727 14.0035 23.2329 14.6498C22.7425 14.8576 22.2155 14.9653 21.6829 14.9664C21.1513 14.966 20.6253 14.8574 20.137 14.6472C19.6486 14.437 19.2083 14.1295 18.8426 13.7436C18.4769 13.3577 18.1937 12.9014 18.0101 12.4024C17.8265 11.9035 17.7464 11.3724 17.7747 10.8415L18.183 3.40839H23.4245L23.8995 12.2332C23.8995 12.3081 23.9078 12.3831 23.9078 12.4581ZM38.7241 14.3331C38.3726 14.4772 38.0021 14.5699 37.6241 14.6081C37.4969 14.622 37.3688 14.6275 37.2408 14.6248C36.3365 14.6243 35.4618 14.3022 34.7733 13.7159C34.0847 13.1296 33.6272 12.3175 33.4826 11.4248L32.1826 3.40839H37.1242L39.2408 11.2082C39.3839 11.7356 39.4118 12.2877 39.3226 12.8269C39.2335 13.3661 39.0294 13.8798 38.7241 14.3331Z" fill="#FF6E56"/>
<path d="M7.10615 20.1028C6.94039 20.1028 6.78143 20.1686 6.66422 20.2858C6.54701 20.4031 6.48117 20.562 6.48117 20.7278V29.6725C6.48117 29.8383 6.54701 29.9973 6.66422 30.1145C6.78143 30.2317 6.94039 30.2975 7.10615 30.2975H21.6816C21.8474 30.2975 22.0063 30.2317 22.1235 30.1145C22.2407 29.9973 22.3066 29.8383 22.3066 29.6725V20.7278C22.3066 20.562 22.2407 20.4031 22.1235 20.2858C22.0063 20.1686 21.8474 20.1028 21.6816 20.1028H7.10615ZM21.0566 29.0476H7.73113V21.3528H21.0566V29.0476ZM3.9954 16.6187C4.81847 16.7023 5.64842 16.5521 6.39008 16.1856C7.13174 15.819 7.75508 15.2509 8.18862 14.5463C8.55937 15.2641 9.11682 15.8687 9.80228 16.2964C10.4877 16.7241 11.2758 16.9591 12.0836 16.9766C12.8913 16.9941 13.6889 16.7934 14.3922 16.3958C15.0955 15.9982 15.6786 15.4182 16.0801 14.7171C16.257 15.0217 16.4681 15.3052 16.7092 15.5621C17.1329 16.0093 17.6433 16.3655 18.2092 16.609C18.7751 16.8524 19.3847 16.9779 20.0008 16.9779C20.6169 16.9779 21.2265 16.8524 21.7924 16.609C22.3583 16.3655 22.8687 16.0093 23.2924 15.5621C23.5335 15.3052 23.7446 15.0217 23.9215 14.7171C24.3245 15.4164 24.9082 15.9944 25.6113 16.3905C26.3145 16.7867 27.1112 16.9865 27.9181 16.9689C28.725 16.9514 29.5123 16.7171 30.1976 16.2908C30.8828 15.8644 31.4408 15.2616 31.813 14.5454C32.3738 15.4492 33.2413 16.1208 34.2567 16.4373C35.2721 16.7539 36.3675 16.6943 37.3426 16.2694C38.3176 15.8445 39.1071 15.0827 39.5665 14.1235C40.0259 13.1642 40.1246 12.0716 39.8444 11.0455L37.7503 3.32074V0.624983C37.7503 0.459227 37.6845 0.30026 37.5673 0.183053C37.4501 0.0658463 37.2911 0 37.1254 0L2.85543 0C2.68967 0 2.53071 0.0658463 2.4135 0.183053C2.29629 0.30026 2.23045 0.459227 2.23045 0.624983V3.39324L0.157167 11.048C-0.0113582 11.6694 -0.0424809 12.3201 0.0659643 12.9548C0.174409 13.5894 0.419818 14.1928 0.78512 14.723C1.15042 15.2532 1.62685 15.6974 2.18125 16.0248C2.73565 16.3522 3.35472 16.5549 3.9954 16.6187ZM12.191 15.7279C11.7183 15.728 11.2512 15.6254 10.8221 15.4271C10.393 15.2288 10.0121 14.9396 9.70582 14.5795C9.39955 14.2194 9.17522 13.797 9.04836 13.3416C8.92149 12.8863 8.89513 12.4088 8.9711 11.9422L10.2569 4.02989H15.9176L15.4751 12.1963L15.4509 12.6388C15.4061 13.4731 15.0431 14.2585 14.4367 14.8331C13.8302 15.4078 13.0265 15.728 12.191 15.7279ZM22.3849 14.7029C21.9228 15.1922 21.3215 15.5277 20.6625 15.6639C20.0034 15.8002 19.3184 15.7307 18.7001 15.4649C18.0819 15.199 17.5602 14.7497 17.2058 14.1776C16.8513 13.6055 16.6812 12.9383 16.7184 12.2663L16.7442 11.7855L17.1609 4.02989H22.8274L23.2441 11.7855L23.2699 12.2663C23.2972 12.7114 23.2327 13.1574 23.0805 13.5766C22.9283 13.9957 22.6915 14.3791 22.3849 14.7029ZM30.2955 14.5796C29.8725 15.0765 29.3102 15.4352 28.6812 15.6092C28.0523 15.7833 27.3856 15.7648 26.7673 15.5561C26.149 15.3475 25.6074 14.9582 25.2126 14.4386C24.8177 13.919 24.5878 13.293 24.5524 12.6413L24.5282 12.1988L24.0857 4.03239H29.7447L31.0305 11.9447C31.1069 12.4114 31.0808 12.8892 30.9538 13.3448C30.8269 13.8004 30.6023 14.2229 30.2955 14.5829V14.5796ZM38.1862 14.0138C37.8257 14.5369 37.3169 14.9401 36.7254 15.1717C36.1338 15.4033 35.4865 15.4526 34.8667 15.3132C34.2469 15.1738 33.683 14.8522 33.2475 14.3897C32.812 13.9273 32.5249 13.345 32.423 12.718L31.0105 4.02989H36.6487L38.6378 11.3747C38.7591 11.821 38.7815 12.2883 38.7035 12.7441C38.6255 13.2 38.449 13.6333 38.1862 14.0138ZM3.48041 1.24997H36.5004V2.77993H3.48041V1.24997ZM1.3638 11.3747L3.35292 4.02989H8.9911L8.12029 9.38642L7.73697 11.7414L7.57864 12.7172C7.50917 13.1433 7.35375 13.5508 7.12184 13.9149C6.88992 14.2791 6.58635 14.5923 6.2296 14.8354C5.87284 15.0785 5.47036 15.2466 5.04662 15.3293C4.62288 15.412 4.18675 15.4076 3.76475 15.3165C3.34275 15.2253 2.94371 15.0493 2.59189 14.799C2.24006 14.5488 1.94282 14.2296 1.71823 13.8609C1.49364 13.4922 1.34641 13.0816 1.28548 12.6542C1.22455 12.2268 1.25119 11.7915 1.3638 11.3747Z" fill="black"/>
<path d="M39.3739 35.9415H37.749V18.0078C37.749 17.842 37.6831 17.6831 37.5659 17.5659C37.4487 17.4487 37.2898 17.3828 37.124 17.3828C36.9583 17.3828 36.7993 17.4487 36.6821 17.5659C36.5649 17.6831 36.499 17.842 36.499 18.0078V35.9415H34.4032V20.7286C34.4032 20.5628 34.3374 20.4038 34.2202 20.2866C34.103 20.1694 33.944 20.1036 33.7783 20.1036H25.6776C25.5119 20.1036 25.3529 20.1694 25.2357 20.2866C25.1185 20.4038 25.0527 20.5628 25.0527 20.7286V35.9415H3.49991V18.0145C3.49991 17.8487 3.43406 17.6897 3.31685 17.5725C3.19965 17.4553 3.04068 17.3895 2.87492 17.3895C2.70917 17.3895 2.5502 17.4553 2.43299 17.5725C2.31579 17.6897 2.24994 17.8487 2.24994 18.0145V35.9415H0.624983C0.459227 35.9415 0.30026 36.0073 0.183053 36.1245C0.0658463 36.2417 0 36.4007 0 36.5665L0 39.3747C0 39.5405 0.0658463 39.6995 0.183053 39.8167C0.30026 39.9339 0.459227 39.9997 0.624983 39.9997H39.3739C39.5397 39.9997 39.6987 39.9339 39.8159 39.8167C39.9331 39.6995 39.9989 39.5405 39.9989 39.3747V36.5665C39.9989 36.4007 39.9331 36.2417 39.8159 36.1245C39.6987 36.0073 39.5397 35.9415 39.3739 35.9415ZM26.3026 21.3535H33.1533V35.9415H26.3026V21.3535ZM38.749 38.7497H1.24997V37.1915H38.749V38.7497Z" fill="black"/>
</svg>
