<svg width="30" height="30" viewBox="0 0 30 30" fill="none" xmlns="http://www.w3.org/2000/svg">
<path d="M3.46789 0C2.54815 0 1.66608 0.365376 1.01572 1.01575C0.365366 1.66612 0 2.54822 0 3.46799V11.8867C8.01086e-05 13.2152 0.527882 14.4893 1.4673 15.4287L14.5682 28.5346C15.5085 29.4727 16.7823 29.9997 18.1105 30C19.4387 30.0003 20.7128 29.4739 21.6535 28.5361L28.5307 21.6711C29.4706 20.7323 29.9991 19.4585 30 18.1301C30.0009 16.8016 29.474 15.5272 28.5353 14.5871L15.4344 1.47043C14.9695 1.0047 14.4175 0.635134 13.8098 0.382833C13.202 0.130532 12.5506 0.000444001 11.8925 0H3.46943H3.46789ZM3.46789 2.31199H11.891C12.6077 2.31199 13.2936 2.59714 13.8006 3.10269L26.92 16.2394C27.4168 16.7475 27.693 17.431 27.6886 18.1416C27.6843 18.8521 27.3998 19.5322 26.8969 20.0342L20.0213 26.8993C19.5143 27.4042 18.8279 27.6877 18.1124 27.6877C17.3969 27.6877 16.7105 27.4042 16.2035 26.8993L3.1026 13.7933C2.59669 13.2878 2.31228 12.602 2.31192 11.8867V3.46799C2.31192 3.1614 2.43371 2.86737 2.6505 2.65057C2.86728 2.43378 3.16131 2.31199 3.46789 2.31199ZM7.70641 5.39773C7.40281 5.39773 7.10217 5.45753 6.82168 5.57372C6.54118 5.68991 6.28632 5.86021 6.07164 6.0749C5.85695 6.28958 5.68666 6.54446 5.57047 6.82496C5.45429 7.10546 5.39449 7.40611 5.39449 7.70972C5.39449 8.01334 5.45429 8.31398 5.57047 8.59448C5.68666 8.87499 5.85695 9.12986 6.07164 9.34455C6.28632 9.55923 6.54118 9.72953 6.82168 9.84572C7.10217 9.96191 7.40281 10.0217 7.70641 10.0217C8.31957 10.0217 8.90762 9.77813 9.34119 9.34455C9.77476 8.91096 10.0183 8.3229 10.0183 7.70972C10.0183 7.09654 9.77476 6.50848 9.34119 6.0749C8.90762 5.64131 8.31957 5.39773 7.70641 5.39773Z" fill="#FFA115"/>
</svg>
